<?xml version="1.0" encoding="UTF-8" standalone="no"?>
<!-- Created with Inkscape (http://www.inkscape.org/) -->

<svg
   width="67.536163mm"
   height="67.536163mm"
   viewBox="0 0 67.536163 67.536163"
   version="1.1"
   id="svg2333"
   inkscape:version="1.1.2 (0a00cf5339, 2022-02-04)"
   sodipodi:docname="lily.svg"
   xmlns:inkscape="http://www.inkscape.org/namespaces/inkscape"
   xmlns:sodipodi="http://sodipodi.sourceforge.net/DTD/sodipodi-0.dtd"
   xmlns="http://www.w3.org/2000/svg"
   xmlns:svg="http://www.w3.org/2000/svg">
  <sodipodi:namedview
     id="namedview2335"
     pagecolor="#ffffff"
     bordercolor="#666666"
     borderopacity="1.0"
     inkscape:pageshadow="2"
     inkscape:pageopacity="0.0"
     inkscape:pagecheckerboard="0"
     inkscape:document-units="mm"
     showgrid="false"
     fit-margin-top="0"
     fit-margin-left="0"
     fit-margin-right="0"
     fit-margin-bottom="0"
     inkscape:zoom="0.35355339"
     inkscape:cx="-359.21025"
     inkscape:cy="548.71486"
     inkscape:window-width="1920"
     inkscape:window-height="1007"
     inkscape:window-x="0"
     inkscape:window-y="0"
     inkscape:window-maximized="1"
     inkscape:current-layer="layer1" />
  <defs
     id="defs2330" />
  <g
     inkscape:label="Layer 1"
     inkscape:groupmode="layer"
     id="layer1"
     transform="translate(-10.030123,-147.67622)">
    <g
       id="g53594"
       transform="translate(0,11.394134)">
      <path
         style="fill:#ffc7de;fill-opacity:1;stroke:none;stroke-width:0.264583px;stroke-linecap:butt;stroke-linejoin:miter;stroke-opacity:1"
         d="m 43.881873,175.44941 c 4.565393,-0.051 10.122966,-6.07616 8.120576,-13.30705 -2.002391,-7.23088 -3.9261,-13.41997 -8.08844,-13.31892 -4.16234,0.10104 -7.736765,7.76009 -8.340405,13.53684 -1.286373,12.31042 2.696432,12.92647 8.308269,13.08913 z"
         id="path52772"
         sodipodi:nodetypes="csssc" />
      <path
         id="path43740"
         style="fill:#ffc7de;fill-opacity:1;stroke-width:0.264583"
         d="m 26.646484,159.25781 c -1.673785,0.0558 -3.557139,-0.13833 -5.03125,0.72076 -1.837339,0.84706 -1.886716,3.10398 -1.601563,4.86914 0.414521,1.34669 1.079654,2.66894 1.916007,3.80271 0.614815,1.42292 1.879707,2.68479 3.054687,3.86328 1.048551,1.16793 2.778116,2.63382 3.748536,2.97754 -0.382817,0.0992 2.084577,0.97054 1.79248,-0.61121 -0.116708,-3.79978 0.468076,-7.63397 1.827034,-11.18749 1.125012,-1.09307 1.628341,-3.51307 -0.446142,-3.71312 0.477707,0.30944 -0.94972,-0.6105 -1.414095,-0.14321 -0.0026,-0.5545 -2.52406,-0.5109 -3.520958,-0.57304 l -0.324746,-0.005 z m 34.050782,0.006 c -1.382103,-0.15423 -3.801667,0.39274 -4.211859,0.42936 -2.065059,-0.2232 -2.940699,1.709 -1.555092,3.3269 1.350283,3.82537 1.980882,7.90571 1.888091,11.9606 -0.175542,1.53913 2.200021,0.50762 1.775557,0.52112 0.979803,-0.34675 2.709863,-1.81401 3.765459,-2.98793 1.17394,-1.1779 2.439685,-2.43903 3.052734,-3.86133 0.840859,-1.12969 1.497516,-2.45951 1.917968,-3.80266 0.289355,-1.76518 0.235511,-4.02223 -1.601553,-4.87109 -1.000235,-0.69442 -2.380111,-0.62149 -4.059466,-0.71417 -0.323926,-0.004 -0.648049,-0.004 -0.971839,-8e-4 z m -38.292969,0.38086 -0.02539,0.006 z m -0.511719,8.88477 c 0.07887,0.12826 -0.03319,0.0269 0,0 z m 43.558594,0 -0.01953,0.0644 z"
         sodipodi:nodetypes="ccccccsssssssscssssscscsssscscccccscssccscccccscccsscccssssccccccscsssscsccsssscsssssssssccccssccccccccccccc" />
      <path
         id="path33287"
         style="fill:#ffb0d0;fill-opacity:1;stroke-width:0.264583"
         d="m 32.90625,152.24414 c -1.668023,-0.3118 -3.48993,0.60032 -4.007465,2.26641 -0.388147,0.99068 -0.471459,2.05865 -0.635113,3.10078 0.0041,1.30601 1.441929,1.2089 2.334816,1.53001 1.44893,0.34543 2.877845,0.83078 4.351251,1.02831 1.355198,-0.40437 1.425962,-2.16061 1.942837,-3.27581 0.779674,-1.43177 0.8553,-3.39382 -1.130899,-3.8017 -0.911743,-0.39565 -1.866654,-0.71897 -2.855427,-0.848 z m 22.095703,0 c -1.511131,0.26131 -3.084723,0.72803 -4.265625,1.73828 -0.805842,1.29593 0.476397,2.78213 0.688203,4.12902 0.248363,1.53552 1.590375,2.5831 3.068512,1.71788 1.543629,-0.40115 3.120258,-0.69237 4.6508,-1.13567 0.937706,-0.57938 0.329419,-1.72222 0.281589,-2.58251 -0.210229,-1.65354 -1.099873,-3.5549 -2.930858,-3.83056 -0.491091,-0.0955 -0.997146,-0.0971 -1.492621,-0.0364 z m 0.119141,7.90039 c -1.098667,0.40319 -3.060755,0.63648 -2.884766,2.3828 0.0797,0.64051 1.349043,1.47305 0.353513,0.56443 0.12744,1.30849 0.40287,2.78238 -0.188532,3.98801 -0.03226,1.37063 -0.197579,2.85996 -1.060325,3.85203 -0.40353,1.18398 -0.878796,2.32397 -1.986723,3.23908 -0.755267,0.93228 -2.195034,0.78691 -2.571796,2.08844 -0.327543,1.94386 2.035028,1.58651 3.01669,2.27239 1.475603,0.53144 2.978518,-0.0809 4.206678,-0.64685 0.828713,0.25659 2.037934,-0.76809 1.945317,-0.66984 1.158443,0.19626 1.114517,-0.94788 2.214848,-1.14061 1.291826,-1.02563 0.705048,-2.85742 0.757911,-4.27316 -0.321595,-3.47563 -0.919154,-6.98749 -2.26963,-10.22298 -0.28741,-0.63872 -0.75762,-1.3765 -1.533185,-1.43374 z m -22.013672,0.28906 c -1.765724,-0.23494 -1.954688,1.99063 -2.452229,3.17725 -1.207979,3.59721 -1.85344,7.38312 -1.729412,11.18094 -0.166454,1.05468 0.932246,1.39174 1.68294,1.75354 1.012314,0.47116 2.005798,1.01163 3.082732,1.31608 1.210072,0.54693 2.63404,0.85514 4.021485,0.66219 1.168812,-0.6174 3.668734,-0.19882 3.41252,-2.25295 -0.49427,-1.42975 -2.173244,-1.27954 -2.945718,-2.53041 -2.036466,-2.38597 -2.1512,-4.281 -2.52294,-6.03228 0.01063,-1.37376 -0.777228,-2.26054 -0.46785,-3.78702 0.430575,-1.31722 0.841545,-3.03922 -1.167438,-3.29791 -0.298143,-0.0901 -0.603552,-0.16017 -0.91409,-0.18943 z m 19.902344,8.61914 c -0.814116,0.34482 -0.868167,0.30609 0,0 z m -13.548828,6.34571 c 0.120537,0.0313 -0.181003,0.002 0,0 z m 8.986328,0 -0.0293,0.0117 z m -13.363282,1.44922 c -0.133613,0.80294 -0.218609,0.69761 0,0 z m 17.773438,0.0547 c 0.246981,0.95719 -0.02209,0.84485 0,0 z m 3.132812,0.28516 -0.02734,0.0195 z"
         sodipodi:nodetypes="ccccccccccccccccccccccccccccccccccccccccccccccccccccccccc" />
      <path
         id="path8333"
         style="fill:#b2e59c;fill-opacity:1;stroke-width:0.264583"
         transform="translate(-12.256127,-20.389796)"
         d="m 79.478516,189.24609 a 0.71665926,0.71665926 0 0 0 -0.660157,0.27735 c -0.463193,0.60761 -1.478288,1.36676 -2.310547,2.26953 -0.416129,0.45138 -0.796182,0.95397 -1.009765,1.56055 -0.186445,0.5295 -0.178336,1.14591 0.01172,1.75586 0.01439,1.18597 -0.476876,2.23003 -1.265625,3.18164 -0.784758,0.94679 -1.860565,1.76847 -2.902344,2.42968 -6.401738,3.55915 -14.152936,3.87018 -21.412109,2.97071 -4.66865,-0.79133 -9.693723,-2.23748 -12.421876,-6.08008 a 0.71665926,0.71665926 0 0 0 -0.07617,-0.0918 c -0.340006,-0.34137 -0.467772,-0.67833 -0.53125,-1.11133 -0.06348,-0.43299 -0.0341,-0.94945 -0.01563,-1.51172 0.01847,-0.56226 0.02712,-1.1802 -0.19336,-1.80859 -0.206545,-0.58868 -0.669348,-1.13699 -1.351562,-1.53711 -0.249183,-0.47729 -0.514099,-0.92189 -0.90625,-1.14844 -0.482014,-0.27846 -1.029485,-0.293 -1.488282,-0.19336 -0.917592,0.19929 -1.68549,0.74119 -2.371093,1.0254 a 0.71665926,0.71665926 0 0 0 -0.04492,0.0195 c -1.79648,0.88931 -3.116794,1.68635 -4.642578,3.17382 a 0.71665926,0.71665926 0 0 0 -0.0625,0.0703 c -0.517704,0.65689 -1.094272,1.23874 -1.527344,1.99609 -0.426373,0.74564 -0.651901,1.6892 -0.455078,2.81445 0.06182,0.96515 0.410423,1.75461 0.886719,2.40821 0.484045,0.66422 1.072702,1.21721 1.669922,1.85937 a 0.71665926,0.71665926 0 0 0 0.07617,0.0684 c 1.519472,1.22674 3.399971,2.77361 5.837891,2.55078 2.089038,-0.0176 3.734968,-1.14183 5.070312,-1.52734 a 0.71665926,0.71665926 0 0 0 0.03125,-0.01 c 0.836245,-0.2845 1.517872,-0.0145 2.199219,0.54883 0.681347,0.56332 1.259276,1.42817 1.578125,2.06641 l -0.0059,-0.0117 c 0.250782,0.52509 0.660927,1.13348 1.181641,1.69531 0.520713,0.56183 1.139201,1.08358 1.898437,1.31641 a 0.71665926,0.71665926 0 0 0 0.0625,0.0156 c 2.983894,0.62954 5.952135,0.42751 8.685547,0.92578 l 0.332031,0.0625 a 0.71665926,0.71665926 0 0 0 0.09766,0.0117 l 0.339844,0.0176 a 0.71665926,0.71665926 0 0 0 0.05273,0.002 c 4.211729,-0.0862 8.457599,-0.2762 12.664062,-0.8125 2.351713,-0.12562 4.551779,-0.8781 6.574219,-1.09765 a 0.71665926,0.71665926 0 0 0 0.222656,-0.0625 c 1.010061,-0.46606 2.359589,-0.70914 3.404297,-0.97656 A 0.71665926,0.71665926 0 0 0 76.939453,208.25 c 0.256154,-0.18228 0.673326,-0.27868 1.1875,-0.39844 0.427422,-0.0995 0.938289,-0.28818 1.369141,-0.67578 0.881764,-0.20212 1.557396,-0.46913 2.111328,-0.76758 0.594912,-0.32052 1.09526,-0.64424 1.859375,-0.98047 a 0.71665926,0.71665926 0 0 0 0.154297,-0.0937 c 1.383357,-1.08998 3.18526,-2.37846 4.140625,-4.03515 0.590294,-0.67967 0.70949,-1.56362 0.679687,-2.38086 -0.03052,-0.83681 -0.220549,-1.64371 -0.410156,-2.23633 a 0.71665926,0.71665926 0 0 0 -0.06836,-0.15039 c -1.137239,-1.8909 -2.9627,-3.5922 -4.775391,-4.47266 a 0.71665926,0.71665926 0 0 0 -0.195312,-0.0625 c -0.643797,-0.10589 -0.99776,-0.5311 -1.451172,-1.14062 -0.226707,-0.30476 -0.459037,-0.64317 -0.775391,-0.95117 -0.316354,-0.30801 -0.750631,-0.59066 -1.287109,-0.65821 z" />
      <path
         style="fill:#9ad880;fill-opacity:1;stroke-width:0.264583"
         d="m 37.699022,183.7771 c -4.71811,-0.79313 -9.23287,-2.69286 -11.39607,-4.79525 -1.80333,-1.75264 -2.69648,-4.20188 -1.95808,-5.36956 0.1698,-0.26852 0.10643,-0.55833 -0.20249,-0.92604 -0.2473,-0.29437 0.26474,0.12592 1.13786,0.93396 2.02967,1.87838 3.69025,3.00796 5.88475,4.00299 2.74817,1.24608 6.6758,1.92933 8.13817,1.41571 1.672,-0.58726 2.5615,-1.09133 3.33617,-1.89059 1.13939,-1.17555 1.98102,-1.17226 3.12907,0.0122 1.17886,1.21628 3.22604,2.07086 4.90289,2.04667 1.45979,-0.0211 2.70082,-0.16698 3.31623,-0.38991 0.21828,-0.0791 0.87313,-0.28814 1.45521,-0.46457 2.52082,-0.76411 5.19113,-2.42784 7.80521,-4.86303 0.94588,-0.88116 1.45738,-1.30286 1.13666,-0.93712 -0.41416,0.47228 -0.51117,0.7788 -0.33479,1.05776 0.39451,0.62393 0.28717,1.88704 -0.26344,3.09998 -1.47324,3.24543 -6.6597,6.00248 -13.32531,7.08356 -3.00407,0.48722 -9.81719,0.47827 -12.76204,-0.0168 z"
         id="path8282" />
      <path
         style="fill:#000000;stroke-width:0.264583"
         d="m 39.704836,192.30216 c -4.15958,-0.18316 -7.53155,-0.57415 -8.66365,-1.00457 -1.08977,-0.41433 -2.50865,-1.81896 -3.38546,-3.35147 -1.13942,-1.99149 -1.60747,-2.27959 -2.99453,-1.84318 -0.60277,0.18965 -1.68178,0.61136 -2.3978,0.93713 -2.74791,1.25021 -5.979419,0.32451 -9.226351,-2.64301 -5.3473771,-4.8872 -3.4457261,-10.75131 4.773525,-14.72009 1.346067,-0.64996 2.447396,-1.22183 2.447396,-1.27082 0,-0.049 -0.32618,-0.78806 -0.72484,-1.64239 -0.603216,-1.29269 -0.725305,-1.91656 -0.727605,-3.71807 -0.0026,-2.04484 0.0412,-2.21105 0.790985,-3.0008 1.18339,-1.24645 2.58539,-1.85272 5.06696,-2.1911 2.42837,-0.33114 2.24667,-0.1628 2.6128,-2.42063 0.39163,-2.41505 1.96401,-4.22445 3.92686,-4.5188 1.29669,-0.19445 3.78993,0.3477 5.41753,1.17804 l 1.01762,0.51915 1.08354,-1.53645 c 1.17615,-1.66779 3.06274,-3.08951 4.4434,-3.34852 1.80634,-0.33888 4.15618,1.05706 5.80198,3.44668 l 0.99467,1.44422 1.02343,-0.52212 c 1.63291,-0.83304 4.12492,-1.37571 5.42334,-1.181 1.96285,0.29435 3.53523,2.10375 3.92686,4.5188 0.37471,2.31071 0.20545,2.14527 2.36158,2.30834 2.346664,0.17748 3.929084,0.83637 5.185894,2.15931 0.90364,0.95119 0.92604,1.02719 0.92604,3.14219 0,2.01959 -0.0766,2.32084 -1.12259,4.41639 -2.03103,4.0689 -5.805694,7.90838 -9.857624,10.0269 -2.65976,1.39064 -4.7273,1.95112 -7.27484,1.97211 -2.32679,0.0192 -3.51827,-0.42222 -5.25429,-1.94647 -1.13809,-0.99925 -1.84948,-0.99925 -2.98757,0 -1.64052,1.4404 -2.9509,1.95383 -4.98851,1.95456 -5.36025,0.002 -11.16265,-3.24104 -15.23521,-8.51499 l -0.67452,-0.87351 -2.900169,1.45183 c -3.044458,1.52406 -5.21419,3.28799 -6.062681,4.92879 -0.717219,1.38695 -0.595499,3.23432 0.310017,4.70518 1.057218,1.71727 4.026671,3.91865 5.830369,4.3223 1.282684,0.28706 1.552024,0.25424 3.447214,-0.42003 3.76647,-1.34003 3.84951,-1.35272 4.99583,-0.76382 0.70069,0.35997 1.29485,0.98599 1.86325,1.96314 1.85596,3.19065 2.3948,3.4658 7.75293,3.95895 4.32713,0.39825 14.03655,0.19229 17.87089,-0.3791 5.7931,-0.86328 10.509854,-2.18671 14.287504,-4.0088 8.41742,-4.06003 9.07446,-9.31918 1.70218,-13.62483 -2.08616,-1.21838 -2.22485,-1.37695 -1.8374,-2.10091 0.40664,-0.75982 0.9723,-0.67075 2.9061,0.45755 5.12039,2.98758 7.18051,7.22583 5.30206,10.90789 -2.90395,5.69221 -14.630134,10.22225 -27.784404,10.73362 -1.96453,0.0764 -3.98859,0.16772 -4.49791,0.20301 -0.50933,0.0353 -2.71198,-0.0145 -4.8948,-0.1106 z m -0.13229,-15.34979 c 1.07251,-0.49505 1.14179,-0.57978 0.69838,-0.85409 -2.92397,-1.80886 -4.26121,-3.26286 -4.09301,-4.45037 0.16039,-1.1324 1.06699,-0.90091 2.32785,0.59441 0.63384,0.75168 1.63918,1.58777 2.23408,1.85795 1.46881,0.66708 4.65376,0.6719 6.10874,0.009 1.43942,-0.65556 2.85384,-2.29602 3.59379,-4.16812 0.53893,-1.3635 0.61568,-2.01415 0.62045,-5.26013 0.005,-3.06909 -0.0978,-4.06708 -0.59686,-5.82084 -1.20297,-4.22755 -3.73482,-8.17755 -5.79276,-9.03741 -0.73428,-0.3068 -1.00037,-0.3068 -1.73465,0 -2.02189,0.84481 -4.55759,4.75985 -5.76767,8.90513 -0.45089,1.54457 -0.5974,2.83469 -0.66103,5.82084 -0.045,2.11005 -0.0886,3.92575 -0.097,4.03489 -0.008,0.10914 -0.31588,0.19844 -0.68328,0.19844 -0.97451,0 -1.21784,-0.93301 -1.16551,-4.46904 l 0.045,-3.04212 -1.02399,-0.35971 c -3.18893,-1.12024 -7.97701,-1.52008 -10.39235,-0.86783 -1.5985,0.43166 -2.67017,1.54414 -2.67017,2.77183 0,3.92207 5.11782,10.36933 10.44795,13.162 3.08174,1.61464 6.40109,1.99085 8.60205,0.97494 z m 15.61042,-0.32763 c 5.84873,-2.38859 11.906254,-9.41433 11.906254,-13.8093 0,-1.22641 -1.06975,-2.33833 -2.67017,-2.77541 -2.408594,-0.6578 -7.177984,-0.25776 -10.393354,0.87175 l -1.02498,0.36005 0.0466,2.92692 c 0.0924,5.80565 -1.62757,9.73811 -5.01512,11.46631 -0.57822,0.29498 -1.0513,0.59927 -1.0513,0.67619 0,0.0769 0.50601,0.37681 1.12447,0.66644 1.59879,0.74872 4.72014,0.57983 7.07761,-0.38295 z m -19.51135,-19.41796 c 0.37446,-1.12778 0.76361,-2.25978 0.86476,-2.51555 0.14517,-0.36706 -0.06,-0.57293 -0.97392,-0.9772 -4.05504,-1.79373 -6.11654,-0.92192 -6.49519,2.74682 l -0.14215,1.37734 1.81799,0.33959 c 0.99989,0.18677 2.29423,0.49359 2.87632,0.68181 0.58208,0.18823 1.12875,0.35471 1.21483,0.36997 0.0861,0.0153 0.46289,-0.89499 0.83736,-2.02278 z m 20.39911,1.16477 2.60756,-0.56945 -0.13797,-1.3593 c -0.37027,-3.64789 -2.44316,-4.51932 -6.491,-2.72877 -0.91392,0.40427 -1.1191,0.61014 -0.97393,0.9772 0.10115,0.25577 0.4919,1.39265 0.86834,2.5264 0.5423,1.63333 0.77112,2.02627 1.10193,1.89237 0.22964,-0.093 1.59092,-0.42525 3.02507,-0.73845 z"
         id="path7536" />
    </g>
  </g>
</svg>
