<?xml version="1.0" encoding="UTF-8" standalone="no"?>
<!-- Created with Inkscape (http://www.inkscape.org/) -->

<svg
   width="200mm"
   height="100mm"
   viewBox="0 0 200 100"
   version="1.1"
   id="svg5"
   inkscape:version="1.1.2 (0a00cf5339, 2022-02-04)"
   sodipodi:docname="woodlog.svg"
   xmlns:inkscape="http://www.inkscape.org/namespaces/inkscape"
   xmlns:sodipodi="http://sodipodi.sourceforge.net/DTD/sodipodi-0.dtd"
   xmlns="http://www.w3.org/2000/svg"
   xmlns:svg="http://www.w3.org/2000/svg">
  <sodipodi:namedview
     id="namedview7"
     pagecolor="#ffffff"
     bordercolor="#666666"
     borderopacity="1.0"
     inkscape:pageshadow="2"
     inkscape:pageopacity="0.0"
     inkscape:pagecheckerboard="0"
     inkscape:document-units="mm"
     showgrid="false"
     fit-margin-top="0"
     fit-margin-left="0"
     fit-margin-right="0"
     fit-margin-bottom="0"
     inkscape:zoom="0.7313903"
     inkscape:cx="307.63329"
     inkscape:cy="128.52235"
     inkscape:window-width="1920"
     inkscape:window-height="1007"
     inkscape:window-x="0"
     inkscape:window-y="0"
     inkscape:window-maximized="1"
     inkscape:current-layer="layer1"
     showguides="false" />
  <defs
     id="defs2" />
  <g
     inkscape:label="Layer 1"
     inkscape:groupmode="layer"
     id="layer1"
     transform="translate(-6.8259911,-111.14503)">
    <g
       id="g26427"
       transform="matrix(1,0,0,1.2783971,3.9214609,-19.136106)">
      <ellipse
         style="fill:#ffe4d1;fill-opacity:1;fill-rule:evenodd;stroke:none;stroke-width:0.264583;stroke-linecap:round;stroke-dasharray:0.264583, 0.79375;stroke-opacity:1"
         id="path853"
         cx="16.252256"
         cy="140.82152"
         rx="8.9795036"
         ry="27.549959" />
      <g
         id="g931">
        <path
           style="fill:#ddc5ab;stroke-width:0.100381"
           d="m 14.731192,170.75973 -0.30185,-0.11359 -0.364587,-0.22717 -0.364591,-0.22716 -0.676815,-0.75623 -0.676818,-0.75622 -0.168106,-0.32157 -0.168106,-0.32158 -0.357417,-0.5521 -0.357417,-0.55209 -0.412174,-0.8205 -0.412175,-0.82049 -0.4938854,-1.33772 -0.4938852,-1.33771 -0.3048288,-1.00381 -0.3048287,-1.00381 -0.1188114,-0.45172 -0.1188152,-0.45172 -0.07756,-0.50191 -0.077564,-0.50191 -0.5056958,-2.50954 -0.5056957,-2.50954 -0.1674498,-1.30496 -0.1674536,-1.30496 -0.097736,-1.40534 -0.097736,-1.40534 -0.056602,-5.01909 -0.056598,-5.01908 0.1193653,-2.30877 0.1193653,-2.30878 0.1490909,-1.35515 0.1490871,-1.35515 0.098233,-0.60229 0.098233,-0.60229 0.4530205,-2.40916 0.4530168,-2.40916 0.2587284,-1.1042 0.2587247,-1.1042 0.4773701,-1.40534 0.4773701,-1.40534 0.2320374,-0.65248 0.232038,-0.65248 0.545973,-1.05401 0.545972,-1.05401 0.229724,-0.30752 0.229727,-0.30752 0.156053,-0.37349 0.156053,-0.37348 0.806742,-0.82316 0.806738,-0.82315 v -0.062 -0.062 l 0.690157,-0.31811 0.690158,-0.31811 0.840664,-0.0921 0.840663,-0.0921 2.810684,-0.054 2.810684,-0.054 11.69446,-0.24948 11.694458,-0.24948 7.879958,-0.15545 7.879957,-0.15544 6.022897,-0.0982 6.022897,-0.0982 7.729385,-0.10407 7.729384,-0.10407 12.045791,1.8e-4 12.0458,1.8e-4 9.13473,0.10377 9.13472,0.10377 6.575,0.0998 6.575,0.0998 7.629,0.14758 7.629,0.14759 5.27004,0.10241 5.27003,0.10242 9.2853,0.20086 9.2853,0.20086 0.75287,0.0942 0.75286,0.0942 0.50191,0.22184 0.5019,0.22184 0.8241,0.80234 0.82409,0.80235 0.24016,0.36258 0.24016,0.36259 0.47426,0.7362 0.47425,0.7362 0.39384,0.8144 0.39383,0.81441 v 0.18925 0.18924 l 0.29269,0.66931 0.29267,0.6693 0.40344,1.25477 0.40344,1.25477 0.25053,0.85325 0.25052,0.85324 -0.007,0.557 -0.007,0.557 0.11234,0.2099 0.11232,0.20989 0.30121,1.64227 0.3012,1.64226 0.25306,1.95744 0.25308,1.95744 0.15078,2.5093 0.15079,2.50929 -0.002,3.71436 -0.002,3.71437 -0.14389,2.42042 -0.14387,2.42042 -0.107,0.89218 -0.10701,0.89217 -0.20576,1.45553 -0.20577,1.45554 -0.25047,1.30496 -0.25048,1.30496 -0.14458,0.43193 -0.14458,0.43192 0.0131,0.42132 0.0131,0.42132 -0.2208,0.70267 -0.22079,0.70267 -0.38245,1.21158 -0.38244,1.21157 -0.31272,0.7125 -0.31272,0.7125 v 0.18925 0.18925 l -0.40885,0.84545 -0.40885,0.84545 -0.45774,0.70516 -0.45776,0.70515 -0.21249,0.31449 -0.21251,0.31449 -0.70267,0.74374 -0.70267,0.74373 -0.50191,0.24673 -0.50191,0.24674 -87.9343,0.0132 -87.934299,0.0132 -0.301851,-0.11359 z m -1.264998,-17.32016 0.139641,-0.0884 -0.06051,-2.19371 -0.06051,-2.19372 -0.111618,-2.45935 -0.111618,-2.45935 -0.008,-3.61374 -0.008,-3.61374 0.117423,-1.25477 0.117426,-1.25477 0.100487,-0.90343 0.100487,-0.90344 0.09024,-2.25858 0.09024,-2.25859 0.163778,-0.83311 0.163777,-0.8331 0.174746,-0.31279 0.174745,-0.3128 0.166968,-0.10532 0.166968,-0.10532 0.05663,0.0566 0.05663,0.0566 -0.150597,0.69268 -0.150597,0.69268 -0.147972,2.15821 -0.147968,2.1582 -0.109903,1.95744 -0.109903,1.95744 -0.06129,2.40916 -0.06129,2.40916 0.125337,5.82214 0.125336,5.82213 -0.0898,0.77796 -0.0898,0.77795 h 0.113257 0.113257 l 0.61429,-0.37643 0.61429,-0.37643 0.493085,-0.45864 0.493081,-0.45864 0.06267,-0.59537 0.06267,-0.59536 0.112714,-2.25859 0.112715,-2.25858 -0.04705,-7.42824 -0.04705,-7.42824 -0.161095,-0.7415 -0.161098,-0.7415 -0.06257,-0.19714 -0.06257,-0.19713 -0.08263,0.0854 -0.08263,0.0854 -0.154528,0.60229 -0.154523,0.60229 -0.159274,1.35515 -0.159278,1.35515 -0.09247,2.10802 -0.09247,2.10801 0.0091,2.86088 0.0091,2.86087 0.07767,-0.5521 0.07767,-0.5521 0.119093,-1.19242 0.119092,-1.19242 0.05281,-0.13763 0.05282,-0.13764 h 0.142315 0.142318 l 0.0979,0.25749 0.0979,0.25749 v 1.90357 1.90357 l -0.152422,1.42758 -0.152426,1.42759 -0.133046,0.88274 -0.13305,0.88274 -0.109308,0.10931 -0.109307,0.10931 -0.15732,-0.0604 -0.15732,-0.0604 v -0.25659 -0.25659 l -0.239509,-0.0911 -0.239508,-0.0911 -0.07402,-2.36894 -0.07402,-2.36893 0.05336,-3.93685 0.05336,-3.93685 0.167377,-1.50572 0.167378,-1.50573 0.190187,-1.054 0.190187,-1.05401 0.08731,-0.41253 0.08732,-0.41253 0.300572,-0.64148 0.300568,-0.64147 0.266608,-0.14192 0.266609,-0.14192 0.204069,0.18468 0.204073,0.18468 0.147611,0.50934 0.147615,0.50934 0.14936,1.054 0.149361,1.05401 3.79e-4,7.22748 3.79e-4,7.22747 -0.09638,1.70649 -0.09638,1.70649 -0.05802,0.65248 -0.05803,0.65248 0.232099,-0.27257 0.232098,-0.27256 0.515633,-0.9822 0.515628,-0.98221 0.06604,-1.70649 0.06605,-1.70649 -0.106371,-3.86469 -0.106375,-3.86469 -0.102145,-1.85706 -0.102144,-1.85706 -0.148264,-1.50573 -0.14826,-1.50572 -0.145244,-0.90343 -0.145244,-0.90344 -0.158515,-1.40534 -0.158515,-1.40534 -0.209927,-0.85325 -0.209923,-0.85324 -0.337893,-0.71455 -0.337889,-0.71456 -0.397234,-0.35887 -0.397234,-0.35888 -0.378375,-0.071 -0.378371,-0.071 -0.404401,0.10794 -0.404397,0.10794 -0.126653,-0.10511 -0.126612,-0.10511 v -0.1195 -0.1195 l 0.27747,-0.26584 0.277475,-0.26583 0.437818,-0.15447 0.437822,-0.15448 h 0.332179 0.33218 l 0.282584,0.10636 0.282585,0.10636 0.385105,0.37045 0.385101,0.37046 0.254085,0.49676 0.254081,0.49677 0.232065,0.8082 0.23206,0.80819 0.151777,0.75286 0.151777,0.75287 0.154319,0.90343 0.154319,0.90344 0.247723,2.25858 0.247726,2.25859 0.103457,1.30496 0.103461,1.30496 0.105802,2.10801 0.105798,2.10802 0.02197,3.02657 0.02197,3.02657 0.07529,-0.0461 0.07528,-0.0462 v -0.18135 -0.18134 l 0.2527,-1.11943 0.252696,-1.11944 0.195176,-1.32831 0.195176,-1.32831 0.117617,-1.55592 0.117616,-1.55591 -0.05898,-4.3666 -0.05898,-4.3666 -0.190062,-0.80306 -0.190057,-0.80305 -0.327456,-1.20458 -0.327456,-1.20458 -0.638735,-1.98222 -0.638734,-1.98222 -0.16715,-0.32655 -0.167154,-0.32656 -0.292142,-0.40966 -0.292145,-0.40966 -0.446879,-0.28248 -0.446881,-0.28247 v -0.1862 -0.18621 h 0.29471 0.294706 l 0.633822,0.43297 0.633821,0.43296 0.370957,0.54576 0.370961,0.54575 0.345481,0.90344 0.345481,0.90343 0.271089,0.88626 0.271086,0.88627 0.03122,-0.033 0.03122,-0.033 -0.09346,-1.40534 -0.09346,-1.40535 -0.09799,-0.54999 -0.09799,-0.54999 -0.448377,-0.90554 -0.44838,-0.90554 -0.655606,-0.87025 -0.655606,-0.87025 -0.490441,-0.36002 -0.490444,-0.36002 -0.358949,-0.14998 -0.35895,-0.14998 h -0.508355 -0.508355 l -0.351825,0.147 -0.351824,0.14701 -0.446241,0.32046 -0.446237,0.32046 -0.06484,0.21011 -0.06484,0.21011 -0.417611,0.45172 -0.417616,0.45172 -0.372554,0.61542 -0.372559,0.61542 v 0.0811 0.0811 l -0.541537,1.16054 -0.541541,1.16054 -0.353983,1.00381 -0.353987,1.00382 -0.457562,1.70649 -0.4575654,1.70649 -0.2988761,1.50572 -0.2988798,1.50573 -0.1030817,0.85324 -0.1030778,0.85324 -0.1525662,1.40534 -0.1525661,1.40535 -0.1526876,1.69389 -0.1526837,1.6939 -0.085193,2.83928 -0.085197,2.83929 0.083482,2.84487 0.083478,2.84486 0.1544708,1.74876 0.1544707,1.74876 0.1387296,0.20868 0.1387334,0.20869 0.3683016,0.37643 0.3682977,0.37643 H 9.675435 9.7789605 l -0.057016,-0.27605 -0.057015,-0.27605 -0.1611594,-1.45553 -0.1611595,-1.45554 -0.053039,-3.62801 -0.053039,-3.62802 0.1160645,-1.99336 0.1160608,-1.99335 0.1490643,-1.75668 0.1490605,-1.75667 0.2118998,-1.55592 0.2119005,-1.55591 0.07381,-0.70268 0.07381,-0.70267 0.370267,-1.85706 0.370267,-1.85706 0.496521,-1.99897 0.496519,-1.99897 v -0.27946 -0.27947 l 0.30992,-0.8565 0.30992,-0.8565 0.390561,-0.60428 0.390564,-0.60428 h 0.09487 0.09487 l 0.30679,-0.25815 0.30679,-0.25814 0.102437,0.0633 0.102436,0.0633 v 0.14233 0.14233 l -0.25095,0.16443 -0.250955,0.16444 v 0.13132 0.13133 l -0.237236,0.28375 -0.237239,0.28375 -0.20317,0.40153 -0.203174,0.40152 -0.213698,0.69342 -0.213698,0.69341 -0.199137,1.10592 -0.199137,1.10591 v 0.47337 0.47336 l -0.241815,0.93952 -0.241815,0.93952 -0.209369,1.054 -0.209373,1.05401 -0.199073,1.35515 -0.199072,1.35515 -0.211338,1.95744 -0.211338,1.95745 -0.100305,2.45935 -0.100301,2.45935 0.05978,3.91042 0.05977,3.91043 0.09748,0.60675 0.09748,0.60674 0.210147,1.90725 0.210151,1.90725 0.203424,0.17513 0.20342,0.17513 0.06483,-0.04 0.06483,-0.04 -0.08056,-4.65234 -0.08056,-4.65234 0.05489,-4.41679 0.05489,-4.4168 0.09794,-0.90343 0.09795,-0.90343 0.151481,-1.20458 0.151481,-1.20458 0.0023,-0.54483 0.0023,-0.54483 0.307155,-1.49942 0.307158,-1.49943 0.346001,-1.19061 0.346001,-1.19062 0.176851,-0.31656 0.176851,-0.31657 0.09852,0.0112 0.09852,0.0112 0.02993,0.38454 0.02993,0.38455 -0.258808,1.07423 -0.258808,1.07424 -0.245309,1.67991 -0.24531,1.67992 -0.152201,1.75934 -0.152202,1.75933 -0.10013,2.75784 -0.10013,2.75784 -7.59e-4,6.32404 -7.59e-4,6.32404 0.06447,0.82815 0.06447,0.82815 0.361552,-0.002 0.361556,-0.002 0.139636,-0.0884 z m 0.363283,-30.02135 -0.06305,-0.10202 0.06204,-0.10038 0.06204,-0.10038 h 0.09446 0.09446 v 0.14465 0.14465 l -0.09345,0.0577 -0.09344,0.0577 z"
           id="path1332" />
        <path
           style="fill:#d4b397;stroke-width:0.100381"
           d="m 14.394415,170.52199 -0.634064,-0.37509 -0.656718,-0.73377 -0.656721,-0.73377 -0.168107,-0.32157 -0.168106,-0.32158 -0.357417,-0.5521 -0.357416,-0.55209 -0.430599,-0.85325 -0.430602,-0.85324 -0.295962,-0.80306 -0.295966,-0.80305 -0.5396706,-1.64101 -0.5396743,-1.64101 -0.1137692,-0.61758 -0.113773,-0.61757 -0.185251,-0.85324 -0.1852549,-0.85325 -0.2590585,-1.35515 -0.2590586,-1.35515 -0.1917842,-1.20458 -0.191788,-1.20458 -0.2301411,-2.10801 -0.2301448,-2.10802 v -6.17347 -6.17347 l 0.2289915,-2.07346 0.2289915,-2.07347 0.1938709,-1.23913 0.193867,-1.23912 0.3079968,-1.55592 0.3079929,-1.55591 0.103222,-0.60229 0.1032221,-0.60229 0.204585,-0.90344 0.2045812,-0.90343 0.5254432,-1.55592 0.5254431,-1.55591 0.17799,-0.50191 0.177993,-0.50191 0.515875,-1.04724 0.515871,-1.04725 0.365251,-0.57005 0.365255,-0.57004 0.07209,-0.22716 0.0721,-0.22715 0.917806,-0.93602 0.917802,-0.93603 0.562723,-0.2568 0.562719,-0.25681 0.541476,-0.0914 0.541481,-0.0914 3.162019,-0.0569 3.162022,-0.0569 11.543885,-0.24801 11.543886,-0.24801 8.130911,-0.15873 8.130912,-0.15873 7.177286,-0.14296 7.177285,-0.14296 6.625187,-0.11681 6.625187,-0.11681 16.663352,0.0553 16.66334,0.0554 5.32023,0.10551 5.32022,0.10552 5.42062,0.10178 5.4206,0.10178 7.93015,0.15002 7.93015,0.15001 5.11946,0.10052 5.11946,0.10051 9.33549,0.20159 9.33549,0.20159 0.77219,0.0962 0.77219,0.0962 0.49714,0.25193 0.49715,0.25192 0.78849,0.78225 0.78849,0.78225 0.72402,1.1619 0.72402,1.16191 0.30481,0.64432 0.30481,0.64432 8e-5,0.18393 8e-5,0.18394 0.29269,0.66931 0.29267,0.6693 0.40344,1.25477 0.40344,1.25477 0.2629,0.86701 0.26288,0.86702 -0.004,0.18699 -0.004,0.187 -0.004,0.37738 -0.004,0.37739 0.10102,0.18875 0.10101,0.18874 0.30035,1.64227 0.30035,1.64226 0.2022,1.52937 0.20219,1.52937 0.15737,1.58246 0.15737,1.58246 0.0916,1.25477 0.0916,1.25477 v 3.96507 3.96508 l -0.091,1.25477 -0.091,1.25477 -0.1611,1.6563 -0.1611,1.65629 -0.25206,1.80687 -0.25206,1.80687 -0.25238,1.30496 -0.2524,1.30496 -0.15436,0.47565 -0.15437,0.47565 0.0591,0.23553 0.0591,0.23553 -0.0887,0.29264 -0.0887,0.29263 -0.45458,1.50573 -0.45457,1.50572 -0.31753,0.75286 -0.31753,0.75286 -0.17411,0.61235 -0.17412,0.61235 -0.40068,0.74285 -0.40069,0.74286 -0.66275,1.00377 -0.66274,1.00376 -0.58461,0.5713 -0.58459,0.5713 -0.58738,0.30704 -0.58739,0.30704 H 102.87953 15.028426 l -0.634061,-0.3751 z m 2.501158,-0.82232 0.509532,-0.19361 0.534472,-0.41234 0.534466,-0.41234 0.500862,-0.67392 0.500862,-0.67392 0.33128,-0.60229 0.331277,-0.60229 0.280247,-0.5521 0.280244,-0.5521 0.463109,-1.20458 0.463112,-1.20458 0.435576,-1.5159 0.435572,-1.5159 0.255701,-1.09402 0.255701,-1.09402 0.251907,-1.37476 0.251911,-1.37477 0.249062,-1.73706 0.249061,-1.73707 0.152934,-1.65629 0.152938,-1.6563 0.100893,-1.95744 0.100896,-1.95745 v -2.05782 -2.05782 l -0.0994,-1.95744 -0.0994,-1.95744 -0.09964,-1.15439 -0.09964,-1.15439 -0.211555,-1.80687 -0.211558,-1.80687 -0.244198,-1.45341 -0.244197,-1.45341 -0.441108,-1.90937 -0.441111,-1.90938 -0.552836,-1.70648 -0.552835,-1.70649 -0.215132,-0.60229 -0.215132,-0.60229 -0.358491,-0.80305 -0.35849,-0.80306 -0.300762,-0.45171 -0.300765,-0.45172 -0.511421,-0.68334 -0.511421,-0.68333 -0.653516,-0.44255 -0.653519,-0.44254 -0.476812,-0.12461 -0.476813,-0.12462 -0.476812,0.12501 -0.476813,0.12501 -0.628578,0.42281 -0.628581,0.42282 -0.05991,0.20076 -0.05991,0.20076 -0.330457,0.35134 -0.330453,0.35133 -0.461686,0.72025 -0.46169,0.72025 v 0.0789 0.0789 l -0.500008,1.05795 -0.500009,1.05795 -0.409773,1.1042 -0.409774,1.1042 -0.132868,0.5521 -0.132871,0.5521 -0.4509493,1.75667 -0.4509528,1.75668 -0.2681602,1.45554 -0.268164,1.45553 -0.0925,1.1042 -0.092504,1.10419 -0.1010784,0.75287 -0.1010822,0.75286 -0.1580295,1.78443 -0.1580332,1.78442 -0.074691,2.64715 -0.074692,2.64714 0.072347,2.64533 0.072351,2.64534 0.1616944,1.84707 0.1616943,1.84708 0.051803,0.0838 0.051803,0.0838 0.09634,0.57865 0.09634,0.57865 0.092751,1.10419 0.092754,1.1042 0.3583386,1.80687 0.3583387,1.80687 0.3630811,1.35516 0.3630815,1.35515 0.13212,0.55209 0.132125,0.5521 0.395473,1.05401 0.395474,1.05401 0.221085,0.5521 0.221089,0.55209 0.185156,0.30115 0.185152,0.30114 0.210937,0.5521 0.210936,0.5521 0.445538,0.60229 0.445543,0.60229 0.194986,0.35388 0.194983,0.35388 0.556315,0.44391 0.55631,0.44391 0.431873,0.17532 0.431877,0.17533 0.274971,0.006 0.274974,0.006 0.509531,-0.19361 z m -1.767731,-2.64835 -0.50749,-0.24256 -0.382878,-0.44028 -0.382878,-0.44028 -0.237945,-0.50191 -0.237941,-0.50191 -0.0011,-0.16974 -0.0011,-0.16974 0.109771,-0.0678 0.109766,-0.0678 0.799833,0.86279 0.799834,0.86279 0.385677,0.11555 0.385674,0.11555 0.372483,-0.0699 0.372479,-0.0699 0.498726,-0.4665 0.498722,-0.4665 0.38528,-0.6561 0.385279,-0.65609 0.420541,-1.20458 0.42054,-1.20458 0.634095,-1.94651 0.634094,-1.94652 0.154293,-0.66341 0.154296,-0.6634 0.253071,-1.35516 0.253072,-1.35515 0.149099,-1.20458 0.149098,-1.20458 0.101314,-1.054 0.101317,-1.05401 0.107384,-1.75668 0.107388,-1.75668 0.0011,-5.32022 0.0011,-5.32023 -0.110244,-1.6061 -0.110241,-1.60611 -0.146094,-1.15439 -0.146093,-1.15439 -0.153219,-1.35515 -0.153215,-1.35515 -0.09044,-0.60229 -0.09044,-0.60229 -0.03308,-0.95363 -0.03308,-0.95362 0.100385,-0.0333 0.10038,-0.0333 0.429566,1.68961 0.429567,1.68961 0.241393,1.30496 0.241398,1.30496 0.110552,1.40535 0.110552,1.40534 0.09895,1.10419 0.09895,1.1042 0.06039,3.46317 0.06039,3.46316 -0.112016,2.10802 -0.112013,2.10801 -0.107141,1.50572 -0.107141,1.50573 -0.202461,2.00763 -0.202464,2.00764 -0.292768,1.75112 -0.292768,1.75114 -0.303174,1.31051 -0.303175,1.3105 -0.207313,0.75287 -0.207309,0.75286 -0.449116,1.20458 -0.449117,1.20458 -0.640108,1.30496 -0.640107,1.30496 -0.48508,0.5984 -0.485083,0.5984 -0.405744,0.28516 -0.405744,0.28517 -0.546625,0.0502 -0.546621,0.0502 z m -0.697089,-4.06862 -0.401525,-0.19004 -0.213144,-0.2391 -0.213144,-0.2391 -0.360532,-0.80789 -0.360528,-0.80789 -0.360383,-1.24993 -0.36038,-1.24993 -0.09023,-1.00382 -0.09023,-1.00382 -0.106869,-0.70267 -0.106871,-0.70267 -0.0621,-0.47503 -0.0621,-0.47503 0.126441,-0.15235 0.126445,-0.15236 h 0.172913 0.172917 l 0.169297,0.18708 0.169302,0.18707 0.145232,1.29355 0.145233,1.29356 0.110533,0.80305 0.110532,0.80305 0.303627,1.15439 0.303626,1.15439 0.161535,0.39014 0.161535,0.39013 0.287441,0.28744 0.287441,0.28744 h 0.523057 0.523053 l 0.459409,-0.47681 0.45941,-0.47681 0.361681,-0.85641 0.361685,-0.85642 0.398782,-1.60293 0.398782,-1.60294 0.253876,-1.40535 0.253876,-1.40534 0.147042,-1.35515 0.147046,-1.35515 0.06513,-0.85324 0.06513,-0.85325 0.144458,-0.92532 0.144459,-0.92533 0.212503,-0.5553 0.212503,-0.55531 h 0.07475 0.07475 l 0.0531,0.27605 0.05311,0.27605 -0.09085,1.25477 -0.09085,1.25477 -0.15795,1.35516 -0.157949,1.35515 -0.347041,2.44937 -0.34704,2.44937 -0.295294,1.16437 -0.295291,1.16436 -0.302845,0.89179 -0.302844,0.89179 -0.346942,0.63119 -0.346942,0.63119 -0.257783,0.40835 -0.257784,0.40835 -0.375814,0.24758 -0.375813,0.24757 -0.401526,0.0571 -0.401525,0.0571 z m -2.643052,-2.60059 -0.09039,-0.17566 -0.357838,-1.1042 -0.357834,-1.1042 -0.346073,-1.30496 -0.346072,-1.30496 -0.19026,-1.20458 -0.1902548,-1.20458 0.034753,-0.17567 0.034753,-0.17567 h 0.1077788 0.107778 l 0.429988,0.35235 0.429987,0.35234 0.108545,0.526 0.108545,0.52599 0.344536,2.05783 0.344537,2.05782 0.162931,0.79442 0.162935,0.79442 -0.05886,0.23449 -0.05885,0.23449 h -0.14513 -0.145127 z m 2.817479,-3.19174 -0.221578,-0.1552 -0.246523,-0.42199 -0.24652,-0.422 -0.217594,-0.79541 -0.217591,-0.79541 0.05337,-0.39788 0.05337,-0.39789 0.161899,-0.16185 0.161903,-0.16186 0.08382,0.13557 0.08382,0.13558 0.06677,0.73683 0.06677,0.73683 0.157165,0.53294 0.157168,0.53293 0.102429,0.12548 0.102429,0.12548 h 0.230843 0.230839 l 0.354715,-0.4144 0.354716,-0.41441 0.09787,-0.51413 0.09787,-0.51412 0.158868,-0.90344 0.158864,-0.90343 0.107832,-0.53412 0.107832,-0.53411 0.19483,-0.44045 0.194831,-0.44045 0.09135,-0.0565 0.09135,-0.0565 0.09058,0.16186 0.09058,0.16186 -0.142994,0.91936 -0.142994,0.91935 -0.286519,1.32109 -0.286519,1.32109 -0.267751,0.53597 -0.26775,0.53597 -0.310273,0.32624 -0.310273,0.32624 h -0.259119 -0.259116 z"
           id="path1330" />
        <path
           style="fill:#bc8352;stroke-width:0.100381"
           d="m 14.90694,170.83049 -0.1261,-0.0509 0.05674,-0.0918 0.05674,-0.0918 h -0.113318 -0.113314 l -0.469736,-0.32319 -0.469733,-0.32319 -0.251023,-0.30216 -0.251023,-0.30216 -0.367577,-0.39362 -0.367577,-0.39362 -0.129529,-0.2609 -0.12953,-0.2609 -0.422209,-0.65248 -0.422214,-0.65248 -0.451951,-0.95362 -0.45195,-0.95363 -0.402068,-1.1042 -0.4020639,-1.1042 -0.4099895,-1.33762 -0.4099895,-1.33763 -0.058981,-0.41905 -0.058981,-0.41905 -0.2378996,-1.1042 -0.2378997,-1.1042 -0.2163197,-1.15438 -0.2163197,-1.15439 -0.138153,-0.80306 -0.1381529,-0.80305 -0.2018647,-1.8252 -0.2018686,-1.8252 v -0.41421 -0.41422 l -0.085242,0.0527 -0.085239,0.0527 -0.064876,-1.12585 -0.064873,-1.12587 v -4.46698 -4.46698 l 0.064873,-1.12586 0.064876,-1.12586 0.085239,0.0527 0.085242,0.0527 6.07e-5,-0.43255 6.45e-5,-0.43255 0.2052566,-1.80687 0.2052603,-1.80687 0.1447961,-0.85324 0.1448,-0.85324 0.3060694,-1.55592 0.3060694,-1.55591 0.103222,-0.60229 0.103222,-0.60229 0.2045812,-0.90344 0.2045812,-0.90343 0.5254433,-1.55592 0.5254431,-1.55591 0.180737,-0.50191 0.180732,-0.50191 0.550518,-1.1042 0.550517,-1.10419 0.339043,-0.5123 0.339046,-0.5123 v -0.10662 -0.10663 l 0.923391,-0.98718 0.923391,-0.98719 0.306285,-0.17135 0.306282,-0.17136 0.451719,-0.15086 0.451716,-0.15087 0.451719,-0.0606 0.451715,-0.0605 2.860878,-0.0892 2.860874,-0.0892 11.945414,-0.25281 11.945413,-0.25282 8.030529,-0.15743 8.03053,-0.15744 7.127095,-0.14249 7.127095,-0.14248 6.534403,-0.11694 6.534402,-0.11693 16.703941,0.0549 16.70394,0.0549 5.21985,0.10622 5.21984,0.10621 5.42061,0.1014 5.42061,0.1014 7.93015,0.15002 7.93015,0.15001 5.11946,0.10052 5.11946,0.10051 9.33549,0.20159 9.33549,0.20159 0.75286,0.0942 0.75287,0.0942 0.58262,0.25867 0.58262,0.25866 0.844,0.84973 0.84401,0.84972 0.14945,0.289 0.14945,0.289 0.41007,0.61737 0.41006,0.61737 0.44811,0.9207 0.44811,0.92069 v 0.19122 0.19122 l 0.29269,0.66931 0.29267,0.66931 0.402,1.25477 0.40198,1.25477 0.22152,0.70267 0.22151,0.70267 0.0252,0.71146 0.0252,0.71147 0.11025,0.206 0.11025,0.20601 0.30049,1.64226 0.3005,1.64226 0.20481,1.55592 0.20483,1.55591 0.15469,1.50573 0.15468,1.50572 0.0888,1.15439 0.0888,1.15439 v 4.06545 4.06546 l -0.088,1.15439 -0.088,1.15439 -0.15598,1.55591 -0.15599,1.55591 -0.25726,1.85706 -0.25726,1.85706 -0.2476,1.30497 -0.2476,1.30496 -0.10879,0.25095 -0.10879,0.25096 -0.0751,0.75286 -0.0751,0.75286 -0.45961,1.50572 -0.45961,1.50573 -0.31753,0.75286 -0.31753,0.75286 -0.17401,0.60229 -0.17401,0.60229 -0.37987,0.75286 -0.37989,0.75287 -0.42158,0.65248 -0.42158,0.65248 -0.18703,0.30114 -0.18704,0.30115 -0.55925,0.58926 -0.55927,0.58926 -0.60229,0.41455 -0.60229,0.41456 -87.9343,0.0173 -87.934297,0.0173 z m 2.234117,-1.02646 0.401529,-0.18521 0.528987,-0.42499 0.528986,-0.42499 0.535217,-0.71765 0.53522,-0.71765 0.577398,-1.08395 0.577401,-1.08396 0.494784,-1.27501 0.494785,-1.27502 0.400356,-1.40534 0.400353,-1.40534 0.245947,-1.054 0.245947,-1.05401 0.25191,-1.37477 0.251911,-1.37476 0.249062,-1.73707 0.249061,-1.73706 0.152934,-1.6563 0.152934,-1.6563 0.100893,-1.95744 0.100896,-1.95744 v -2.35897 -2.35896 l -0.0994,-1.95745 -0.0994,-1.95744 -0.09964,-1.15439 -0.09964,-1.15439 -0.211554,-1.80687 -0.211559,-1.80686 -0.244193,-1.45341 -0.244198,-1.45341 -0.45211,-1.95957 -0.452106,-1.95956 -0.488737,-1.45554 -0.488737,-1.45553 -0.411966,-1.03327 -0.411962,-1.03327 -0.344829,-0.68473 -0.344832,-0.68474 -0.612343,-0.81264 -0.612344,-0.81265 -0.422142,-0.36726 -0.422141,-0.36727 -0.60229,-0.28912 -0.60229,-0.28912 -0.451719,9.1e-4 -0.451715,9.1e-4 -0.547995,0.25508 -0.54799,0.25507 -0.430728,0.35295 -0.430731,0.35295 v 0.14006 0.14006 l -0.527002,0.59253 -0.527003,0.59252 -0.320611,0.64094 -0.320608,0.64094 -0.421478,0.90344 -0.421477,0.90343 -0.445809,1.15439 -0.445804,1.15439 -0.130808,0.5521 -0.130808,0.5521 -0.4509486,1.75668 -0.4509528,1.75668 -0.2681641,1.45553 -0.2681602,1.45554 -0.092504,1.10419 -0.0925,1.1042 -0.1010823,0.75286 -0.1010784,0.75286 -0.1571454,1.77467 -0.1571455,1.77466 -0.07833,2.71032 -0.07833,2.71032 0.07822,2.7425 0.07822,2.74249 0.1588754,1.79737 0.1588755,1.79736 0.056761,0.0918 0.056761,0.0918 0.093988,0.72071 0.093991,0.72071 0.090068,1.05401 0.090068,1.054 0.3144085,1.60611 0.3144123,1.60611 0.3476739,1.35515 0.3476737,1.35515 0.186955,0.70378 0.186954,0.70379 0.370115,1.0027 0.370115,1.0027 0.427935,0.90344 0.427935,0.90343 0.30138,0.65248 0.301376,0.65248 0.36013,0.46904 0.360133,0.46903 0.150491,0.29103 0.150495,0.29102 0.551758,0.47138 0.551758,0.47138 0.433641,0.1968 0.433641,0.19679 h 0.552099 0.5521 z"
           id="path1328" />
        <path
           style="fill:#ac744c;stroke-width:0.100381"
           d="m 17.510148,170.77128 0.132818,-0.12615 0.588408,-0.40033 0.588404,-0.40034 0.473633,-0.55279 0.473629,-0.55278 0.434396,-0.59431 0.434396,-0.5943 0.579575,-1.16238 0.579572,-1.16237 0.515131,-1.35515 0.515135,-1.35516 0.246808,-0.90343 0.246804,-0.90343 0.389521,-1.60611 0.389522,-1.60611 0.318285,-1.80687 0.318286,-1.80687 0.192767,-1.55591 0.192763,-1.55591 0.173661,-1.80687 0.17366,-1.80687 0.0011,-5.27004 0.0011,-5.27003 -0.176347,-1.85706 -0.176343,-1.85706 -0.155043,-1.35516 -0.15504,-1.35515 -0.248314,-1.55591 -0.248314,-1.55591 -0.457111,-2.05728 -0.45711,-2.05727 -0.630008,-1.9078 -0.630009,-1.9078 -0.520917,-1.09714 -0.520913,-1.09714 -0.411511,-0.70973 -0.411507,-0.70973 -0.360342,-0.49531 -0.360346,-0.49532 -0.531433,-0.53996 -0.531438,-0.53995 -0.622952,-0.29471 -0.622951,-0.29471 -0.125478,-8e-5 -0.125477,-7e-5 v -0.0843 -0.0843 l 2.635017,-0.0635 2.635016,-0.0635 11.794841,-0.25071 11.794841,-0.25071 7.679193,-0.15276 7.679194,-0.15276 9.034346,-0.15706 9.034346,-0.15705 0.301145,-0.10651 0.301145,-0.1065 17.416211,-0.0428 17.416207,-0.0428 4.96889,0.10419 4.96889,0.10418 4.3666,0.094 4.3666,0.094 5.62137,0.10713 5.62137,0.10714 7.87996,0.14981 7.87996,0.1498 7.82977,0.16071 7.82976,0.16071 7.17729,0.17245 7.17728,0.17244 0.62476,0.2826 0.62474,0.28259 0.89553,0.9257 0.89552,0.92569 0.15618,0.30203 0.15619,0.30202 0.39266,0.59172 0.39268,0.59172 0.31061,0.61596 0.31061,0.61596 0.11937,0.48824 0.11936,0.48824 0.13623,0.27167 0.13623,0.27168 0.29897,0.83252 0.29896,0.83252 0.48935,1.60611 0.48934,1.6061 -0.046,0.36994 -0.046,0.36994 0.15737,0.48331 0.15736,0.4833 0.2505,1.40535 0.25049,1.40534 0.20322,1.5317 0.20321,1.53171 0.15329,1.63031 0.1533,1.63032 0.1242,0.30114 0.12419,0.30115 v 5.92251 5.92252 l -0.1166,0.20268 -0.11661,0.20267 -0.16401,1.75477 -0.16402,1.75476 -0.25273,1.80687 -0.25273,1.80687 -0.19961,1.05401 -0.19961,1.054 -0.20153,0.73031 -0.20153,0.73031 0.0606,0.19083 0.0606,0.19083 -0.55215,1.79314 -0.55215,1.79314 -0.31355,0.74889 -0.31354,0.74888 -0.15057,0.54579 -0.15057,0.54578 -0.30483,0.6086 -0.30484,0.60861 -0.42146,0.65248 -0.42148,0.65248 -0.17919,0.28794 -0.17921,0.28795 -0.69461,0.74912 -0.6946,0.74913 -0.52497,0.36828 -0.52496,0.36827 -86.76216,0.0253 -86.762153,0.0253 z m 60.36179,-23.05908 2.007632,-0.41724 2.308777,-0.55838 2.308777,-0.55837 1.304962,-0.34629 1.304961,-0.34629 0.65248,-0.19946 0.652481,-0.19945 0.401526,-0.081 0.401526,-0.081 1.80687,-0.51795 1.806869,-0.51796 1.284764,-0.36605 1.284764,-0.36605 0.05268,-0.0852 0.05268,-0.0852 -0.43401,0.0637 -0.434009,0.0637 -1.355152,0.23288 -1.355152,0.23288 -1.505724,0.31621 -1.505724,0.31621 -2.057823,0.55438 -2.057824,0.55439 -0.953625,0.28281 -0.953625,0.2828 -0.853244,0.25706 -0.853244,0.25706 -1.806869,0.54158 -1.806869,0.54157 -1.030839,0.27604 -1.030838,0.27603 -0.06324,0.10232 -0.06324,0.10231 0.240832,-0.0553 0.24083,-0.0553 z m -4.266219,-4.09662 v -0.0781 l -1.775648,-0.78454 -1.775647,-0.78454 -1.662423,-0.60381 -1.662423,-0.60381 -0.451717,-0.12574 -0.451718,-0.12574 -1.363449,-0.40611 -1.363449,-0.40611 -0.995519,-0.21599 -0.995519,-0.216 -1.971919,-0.3926 -1.971918,-0.3926 -1.03953,-0.10118 -1.03953,-0.10118 -1.455533,-0.14782 -1.455534,-0.14783 -1.957442,-0.11872 -1.957441,-0.11871 -2.497698,0.0601 -2.497698,0.0601 -0.05367,0.0537 -0.05367,0.0537 0.0678,0.0678 0.06779,0.0678 1.630327,0.0764 1.630328,0.0764 1.355152,0.16226 1.355152,0.16225 2.108014,0.34797 2.108014,0.34796 0.903435,0.15758 0.903434,0.15758 1.20458,0.28233 1.204579,0.28233 1.054007,0.26563 1.054007,0.26563 1.555915,0.51066 1.555915,0.51066 1.076325,0.48833 1.076325,0.48832 h 0.185664 0.185665 l 1.448314,0.24361 1.448315,0.24361 1.304961,0.16196 1.304961,0.16196 1.104198,0.0822 1.104197,0.0822 0.225859,0.0142 0.225859,0.0142 z m 73.178201,-6.14468 2.7605,-0.0957 0.95362,-0.10058 0.95363,-0.10058 1.35514,-0.15642 1.35516,-0.15641 1.1042,-0.20246 1.10419,-0.20246 1.50573,-0.3046 1.50572,-0.3046 2.30878,-0.53663 2.30878,-0.53662 2.40916,-0.50219 2.40916,-0.50218 0.60229,-0.10408 0.60229,-0.10409 1.45553,-0.25039 1.45553,-0.2504 2.10801,-0.29479 2.10802,-0.29481 1.95744,-0.16435 1.95744,-0.16435 1.80687,-0.0942 1.80687,-0.0942 2.45935,-0.003 2.45935,-0.003 2.2084,-0.10033 2.20839,-0.10032 1.45553,-0.15672 1.45554,-0.15671 0.0697,-0.0683 0.0697,-0.0682 -0.0697,-0.70268 -0.0697,-0.70267 -2.30878,-0.0826 -2.30878,-0.0826 -3.31259,0.11108 -3.31259,0.11108 -1.80687,0.14224 -1.80687,0.14224 -1.35515,0.10967 -1.35515,0.10968 -1.55592,0.20048 -1.55592,0.20047 -1.75667,0.28819 -1.75668,0.28819 -0.50191,0.0668 -0.50191,0.0668 -2.76049,0.53231 -2.7605,0.53231 -1.55591,0.27735 -1.55592,0.27736 -0.12075,0.0448 -0.12075,0.0448 0.11823,0.18933 0.11824,0.18933 -0.12346,0.12346 -0.12345,0.12346 -2.58433,0.12163 -2.58433,0.12164 -1.15439,0.1068 -1.15439,0.10679 -1.70649,0.15325 -1.70649,0.15325 -1.16481,0.0988 -1.16482,0.0988 -2.14778,0.10043 -2.14777,0.10043 -2.35897,0.0991 -2.35897,0.0991 -3.21221,0.15899 -3.21222,0.15898 -4.16583,0.23908 -4.16584,0.23907 -2.55973,0.0559 -2.55973,0.0559 -1.50572,0.10187 -1.50573,0.10186 -1.25477,0.10454 -1.25477,0.10454 -0.85324,0.12945 -0.85325,0.12946 0.15057,0.0547 0.15058,0.0547 1.45553,0.11558 1.45553,0.11557 1.30497,0.10916 1.30496,0.10918 12.0301,0.0297 12.03012,0.0297 0.0575,0.0575 0.0575,0.0575 0.25933,-0.002 0.25931,-0.002 2.7605,-0.0957 z m -60.630499,-12.65003 2.258587,-0.0988 1.857059,-0.14938 1.857061,-0.14938 1.204579,-0.10631 1.204579,-0.1063 3.66393,-0.091 3.663924,-0.091 1.00382,-0.16452 1.00382,-0.16453 0.0832,-0.0791 0.0832,-0.0791 -9.769996,-0.0541 -9.77,-0.0541 -2.007632,-0.11117 -2.007632,-0.11117 -3.06164,-0.1971 -3.061639,-0.1971 -3.262403,-0.1962 -3.262402,-0.1962 -3.66393,-0.15943 -3.663929,-0.15942 -2.559731,-0.061 -2.559731,-0.061 0.08348,0.0892 0.08348,0.0892 1.121096,0.15885 1.121095,0.15885 3.011448,0.4156 3.011449,0.4156 3.212212,0.40123 3.212212,0.40122 1.405342,0.14813 1.405343,0.14814 2.007632,0.1641 2.007633,0.16411 1.706487,0.0769 1.706488,0.0769 1.706487,0.0141 1.706488,0.0141 z m 49.488139,-5.971 0.75286,-0.0547 2.00764,-0.0963 2.00763,-0.0963 4.26621,-0.25283 4.26623,-0.25283 4.3164,-0.21193 4.31641,-0.21192 1.30497,-0.0817 1.30496,-0.0817 1.30496,-0.15524 1.30496,-0.15524 1.80687,-0.17553 1.80687,-0.17553 4.53721,-0.003 4.53722,-0.003 -0.0702,-0.0656 -0.0702,-0.0656 -1.00382,-0.10925 -1.00381,-0.10926 -1.14076,-0.15228 -1.14076,-0.15229 -1.92088,-0.19456 -1.92088,-0.19457 -1.80687,-0.11857 -1.80687,-0.11858 -3.21221,-1.2e-4 -3.21221,-1.3e-4 -1.60611,0.11954 -1.60611,0.11954 -1.40534,0.14439 -1.40534,0.14438 -2.00763,0.25643 -2.00763,0.25643 -3.06165,0.50407 -3.06163,0.50407 -0.65248,0.10143 -0.65248,0.10144 -2.86088,0.49338 -2.86088,0.49338 -0.17566,-7e-5 -0.17567,-7e-5 v 0.10837 0.10837 l 0.62738,-0.0556 0.62739,-0.0556 z m -120.708897,51.23986 -0.50191,-0.1946 -0.351335,-0.34964 -0.351335,-0.34965 -0.19222,-0.21993 -0.192217,-0.21994 -0.476615,-0.62969 -0.476611,-0.62969 -0.07066,-0.2321 -0.07066,-0.23209 -0.33106,-0.5521 -0.33106,-0.5521 -0.413082,-0.95363 -0.413085,-0.95362 -0.08405,-0.20077 -0.08405,-0.20076 -0.428773,-1.34754 -0.4287695,-1.34754 -0.3875065,-1.56353 -0.3875028,-1.56352 -0.098605,-0.75286 -0.098605,-0.75287 -0.051738,-0.40152 -0.051742,-0.40153 0.3381738,1.55592 0.3381701,1.55591 0.3270499,1.20458 0.32705,1.20458 0.120159,0.50191 0.120158,0.50191 0.06254,0.15057 0.06255,0.15057 0.363419,1.00382 0.363422,1.00381 0.452399,0.95363 0.452398,0.95362 0.243928,0.50191 0.243929,0.50191 0.45096,0.60031 0.450964,0.60032 v 0.12117 0.12116 l 0.672527,0.57054 0.672524,0.57055 0.439995,0.18861 0.439993,0.1886 0.568872,-0.008 0.568873,-0.008 0.327505,-0.11877 0.327505,-0.11877 0.648887,-0.48027 0.648887,-0.48027 0.560113,-0.74422 0.560116,-0.74421 0.259396,-0.48107 0.259396,-0.48107 0.337654,-0.62967 0.337658,-0.62968 0.503844,-1.31761 0.503848,-1.31761 0.401249,-1.4155 0.401248,-1.4155 0.245946,-1.05401 0.245947,-1.054 0.251911,-1.37477 0.251907,-1.37476 0.249061,-1.73707 0.249062,-1.73707 0.152934,-1.65629 0.152938,-1.6563 0.100893,-1.95744 0.100896,-1.95744 v -2.35897 -2.35897 l -0.0994,-1.95744 -0.0994,-1.95744 -0.09964,-1.15439 -0.09964,-1.15439 -0.211555,-1.80687 -0.211558,-1.80687 -0.244198,-1.4534 -0.244197,-1.45342 -0.452418,-1.95956 -0.452421,-1.95956 -0.45722,-1.40535 -0.457224,-1.40534 -0.202559,-0.50191 -0.202559,-0.50191 -0.189485,-0.42111 -0.189486,-0.42111 0.0044,-0.18118 0.0044,-0.18117 0.202381,0.38356 0.202381,0.38355 0.506287,1.37312 0.506292,1.37313 0.192562,0.70267 0.192565,0.70267 0.34857,1.3323 0.348565,1.3323 0.298038,1.72934 0.298037,1.72934 0.150431,1.00381 0.150426,1.00382 0.158872,1.35515 0.158871,1.35515 0.143905,2.60992 0.143908,2.60992 0.0011,3.01145 0.0011,3.01145 -0.146955,2.69051 -0.146959,2.69051 -0.210906,1.71486 -0.210905,1.71487 -0.0927,0.24381 -0.0927,0.24381 v 0.33139 0.33139 l -0.244569,1.29789 -0.244566,1.29789 -0.268115,1.14978 -0.26811,1.14977 -0.135289,0.63087 -0.135285,0.63087 -0.544515,1.62772 -0.544515,1.62772 -0.472875,1.054 -0.472874,1.05401 -0.596056,1.00381 -0.59606,1.00382 -0.667216,0.69015 -0.667212,0.69014 -0.609824,0.28849 -0.609825,0.2885 -0.75286,-0.005 -0.752864,-0.005 -0.501909,-0.1946 z m -6.3546633,-14.90236 0.00379,-0.30115 0.046275,0.17758 0.046275,0.17758 -0.049993,0.12356 -0.049997,0.12357 0.00379,-0.30114 z m -0.1003841,-0.60229 0.00379,-0.30115 0.046275,0.17758 0.046275,0.17758 -0.049997,0.12356 -0.049993,0.12357 0.00379,-0.30114 z m -0.1063938,-0.5521 -0.013772,-0.15058 -0.1994935,-1.5487 -0.1994936,-1.5487 0.042439,-0.0424 0.042435,-0.0424 0.097247,0.38656 0.097247,0.38657 0.1226167,1.10419 0.1226167,1.1042 -0.049022,0.25096 -0.049025,0.25095 z"
           id="path1326" />
        <path
           style="fill:#9a6237;stroke-width:0.100381"
           d="m 17.642966,170.72753 0.301145,-0.1617 0.5521,-0.42414 0.552099,-0.42414 0.408009,-0.48933 0.408013,-0.48933 0.415335,-0.56641 0.415339,-0.56641 0.549516,-1.08989 0.549516,-1.08989 0.515602,-1.35515 0.515605,-1.35515 0.246808,-0.90344 0.246804,-0.90343 0.389521,-1.60611 0.389522,-1.6061 0.318285,-1.80687 0.318286,-1.80687 0.192767,-1.55592 0.192763,-1.55591 0.173877,-1.80687 0.173877,-1.80687 0.0011,-5.4708 0.0011,-5.4708 -0.176536,-1.85706 -0.176536,-1.85706 -0.15504,-1.35515 -0.15504,-1.35515 -0.248314,-1.55591 -0.248318,-1.55592 -0.457107,-2.05727 -0.45711,-2.05727 -0.630786,-1.9078 -0.63079,-1.90781 -0.512718,-1.07519 -0.512715,-1.07519 -0.414493,-0.68149 -0.414496,-0.68148 -0.339677,-0.41842 -0.33968,-0.41842 v -0.0905 -0.0905 l -0.292544,-0.32767 -0.292544,-0.32767 -0.535603,-0.34529 -0.535603,-0.34529 -0.326242,-0.11815 -0.326238,-0.11815 v -0.0642 -0.0642 l 2.635016,-0.0646 2.635017,-0.0646 11.644269,-0.24805 11.644267,-0.24805 8.181102,-0.15973 8.181102,-0.15973 6.976523,-0.144 6.976522,-0.14399 1.773409,-0.002 1.773408,-0.002 0.04183,-0.12548 0.04183,-0.12548 h 22.35531 22.3553 l 0.0716,0.11065 0.0716,0.11065 4.96888,0.0683 4.96889,0.0683 4.66775,0.0931 4.66775,0.0931 8.23129,0.15434 8.2313,0.15434 5.01908,0.0997 5.01908,0.0997 9.33549,0.20128 9.33549,0.20129 0.77218,0.0962 0.77218,0.0962 0.49715,0.25192 0.49716,0.25193 0.78848,0.78224 0.78849,0.78225 0.72402,1.16191 0.72402,1.16191 0.30481,0.64431 0.30481,0.64432 8e-5,0.18394 8e-5,0.18394 0.29268,0.6693 0.29268,0.66931 0.402,1.25477 0.40198,1.25477 0.22326,0.70267 0.22325,0.70267 0.0253,0.71491 0.0253,0.7149 0.10842,0.20256 0.1084,0.20257 0.30035,1.64226 0.30035,1.64226 0.20361,1.54001 0.20362,1.54001 0.15885,1.67119 0.15886,1.6712 0.11752,0.0726 0.11753,0.0726 v 6.03022 6.03022 l -0.11645,0.072 -0.11646,0.072 -0.16416,1.75633 -0.16416,1.75633 -0.25233,1.80687 -0.25233,1.80687 -0.24743,1.30496 -0.24742,1.30496 -0.1088,0.25096 -0.10878,0.25095 -0.0751,0.75286 -0.0751,0.75286 -0.45961,1.50573 -0.45962,1.50572 -0.31752,0.75287 -0.31753,0.75286 -0.17411,0.61234 -0.17413,0.61235 -0.40244,0.7428 -0.40247,0.74281 -0.58434,0.90344 -0.58435,0.90343 -0.61103,0.63747 -0.61104,0.63747 -0.28139,0.14583 -0.28139,0.14582 -0.22052,0.22052 -0.22052,0.22052 -86.7799,0.0212 -86.779914,0.0212 z m 57.418286,-22.27419 0.803053,-0.14118 1.957442,-0.41024 1.957441,-0.41023 2.710304,-0.65365 2.710304,-0.65365 1.455533,-0.40504 1.455534,-0.40504 0.702671,-0.17396 0.702671,-0.17396 1.656297,-0.47493 1.656297,-0.47492 1.756678,-0.50053 1.756678,-0.50053 0.175668,-0.049 0.175668,-0.049 v -0.0829 -0.0829 l -0.1424,-0.0547 -0.142401,-0.0546 -1.137465,0.1465 -1.137465,0.1465 -1.054007,0.19347 -1.054007,0.19347 -1.505724,0.31241 -1.505724,0.31241 -2.258587,0.60503 -2.258587,0.60503 -1.606105,0.4822 -1.606106,0.4822 -2.057824,0.60853 -2.057823,0.60853 -1.806869,0.52265 -1.806869,0.52265 -0.327171,0.0451 -0.327171,0.0451 -0.056,0.0906 -0.056,0.0906 0.734511,-0.0605 0.734511,-0.0604 z m -1.07673,-4.64312 0.12785,-0.0811 -0.178041,-0.16073 -0.17804,-0.16073 -1.806869,-0.80139 -1.806869,-0.80138 -1.405343,-0.51704 -1.405342,-0.51704 -1.615595,-0.48987 -1.615595,-0.48987 -0.793564,-0.20145 -0.793564,-0.20145 -0.752862,-0.16133 -0.752863,-0.16133 -1.971918,-0.39316 -1.971919,-0.39317 -1.03953,-0.10118 -1.03953,-0.10118 -1.455533,-0.14783 -1.455534,-0.14782 -1.957441,-0.11859 -1.957442,-0.11858 -2.258586,0.0621 -2.258587,0.0621 -1.003816,0.10259 -1.003816,0.10258 -0.225859,0.0512 -0.225858,0.0512 v 0.0799 0.0799 l 2.685208,0.11867 2.685208,0.11867 1.505724,0.19283 1.505725,0.19284 1.85706,0.31135 1.85706,0.31134 0.65248,0.10923 0.652481,0.10922 1.355152,0.29295 1.355152,0.29294 0.702671,0.19156 0.702671,0.19156 0.652481,0.16341 0.65248,0.1634 1.405343,0.45943 1.405343,0.45944 1.095231,0.49118 1.095232,0.49118 1.715454,0.29101 1.715453,0.291 1.304961,0.16154 1.304961,0.16153 1.104198,0.0822 1.104198,0.0822 0.301145,0.0126 0.301145,0.0126 z m 72.699018,-6.13856 2.76049,-0.0957 0.95363,-0.10058 0.95362,-0.10059 1.35515,-0.15641 1.35516,-0.15642 1.10419,-0.20246 1.1042,-0.20246 1.50573,-0.3046 1.50572,-0.30459 2.30878,-0.53663 2.30877,-0.53663 2.40916,-0.50218 2.40916,-0.50219 0.60229,-0.10408 0.60229,-0.10408 1.45554,-0.2504 1.45553,-0.25039 2.10801,-0.2948 2.10802,-0.2948 1.95744,-0.16435 1.95744,-0.16436 1.80687,-0.0942 1.80687,-0.0942 2.50954,-0.005 2.50954,-0.005 2.10801,-0.0959 2.10802,-0.096 1.55591,-0.16175 1.55592,-0.16174 0.22419,-0.14285 0.22419,-0.14285 -0.0585,-0.62616 -0.0585,-0.62617 -0.2293,-0.21102 -0.22929,-0.21103 -2.64665,-0.0698 -2.64666,-0.0698 -2.81068,0.10739 -2.81069,0.1074 -1.90725,0.14721 -1.90725,0.14722 -1.30496,0.10599 -1.30496,0.10599 -1.55592,0.20024 -1.55591,0.20023 -1.45554,0.24428 -1.45553,0.24428 -0.75286,0.10296 -0.75286,0.10297 -2.86088,0.54821 -2.86088,0.54822 -2.00763,0.3618 -2.00763,0.36181 -0.17567,0.0505 -0.17567,0.0505 v 0.0936 0.0936 h 0.50191 0.50191 v 0.10287 0.10286 l -0.22586,0.084 -0.22586,0.084 -1.95744,0.0681 -1.95744,0.068 -1.70649,0.14834 -1.70649,0.14833 -1.6563,0.14722 -1.65629,0.14721 -3.2624,0.20021 -3.26241,0.2002 -2.40916,0.10168 -2.40915,0.10167 -3.21221,0.15653 -3.21222,0.15653 -4.16583,0.24046 -4.16584,0.24045 -2.60993,0.0568 -2.60991,0.0568 -1.55592,0.10661 -1.55592,0.10662 -2.20839,0.20138 -2.2084,0.20138 -0.0995,0.0966 -0.0995,0.0965 0.14111,0.0872 0.14111,0.0872 0.81167,0.0648 0.81168,0.0648 1.00382,0.0954 1.00381,0.0954 1.45554,0.11501 1.45553,0.115 11.97911,0.0269 11.97911,0.0269 0.0583,0.0583 0.0583,0.0583 0.15895,-0.002 0.15893,-0.002 2.7605,-0.0957 z m -60.6305,-12.65003 2.258586,-0.0988 1.85706,-0.14938 1.85706,-0.14938 1.204579,-0.1063 1.20458,-0.10631 3.663929,-0.089 3.663926,-0.089 1.2015,-0.20976 1.20149,-0.20976 0.37952,-0.1022 0.37951,-0.10219 v -0.0946 -0.0946 l -0.22585,-0.0481 -0.22586,-0.0481 -10.038165,-0.0454 -10.038162,-0.0454 -1.957442,-0.10941 -1.957441,-0.10941 -3.262403,-0.19433 -3.262402,-0.19433 -3.262403,-0.15887 -3.262403,-0.15887 -2.208395,-0.0977 -2.208396,-0.0977 -4.546749,-0.16441 -4.546748,-0.1644 -0.32176,0.0992 -0.32176,0.0992 0.250954,0.10258 0.250954,0.10257 1.204579,0.11649 1.20458,0.1165 0.903434,0.13902 0.903435,0.13902 2.961258,0.40643 2.961257,0.40643 3.212212,0.40122 3.212212,0.40122 1.405343,0.14814 1.405342,0.14813 2.007633,0.16411 2.007632,0.1641 1.706488,0.0769 1.706487,0.0769 1.606106,0.0141 1.606106,0.0141 z m 48.33375,-5.97344 2.2084,-0.14692 2.00763,-0.0991 2.00763,-0.0992 4.26622,-0.25319 4.26622,-0.2532 4.31641,-0.21054 4.31641,-0.21055 0.65248,-0.0385 0.65248,-0.0385 1.25477,-0.1028 1.25477,-0.10279 2.35896,-0.22524 2.35897,-0.22523 5.54389,0.003 5.5439,0.003 -0.0731,-0.0598 -0.0731,-0.0598 -0.50191,-0.1184 -0.50191,-0.11839 -1.00381,-0.14395 -1.00382,-0.14395 -1.25477,-0.15838 -1.25477,-0.15837 -1.25477,-0.14738 -1.25477,-0.14738 -1.75668,-0.15099 -1.75668,-0.15099 -2.6698,-0.10142 -2.6698,-0.10143 -2.49654,0.0989 -2.49654,0.0989 -1.6596,0.15417 -1.65962,0.15417 -1.95744,0.25327 -1.95744,0.25327 -0.75286,0.0884 -0.75286,0.0884 -2.7605,0.46624 -2.76049,0.46624 -0.65248,0.10118 -0.65248,0.10117 -2.86088,0.49302 -2.86088,0.49301 -0.76164,0.0962 -0.76165,0.0961 -0.69388,0.10569 -0.69389,0.10568 -0.22586,0.0513 -0.22586,0.0513 v 0.10703 0.10704 l 0.72777,-0.0615 0.72776,-0.0615 z"
           id="path1324" />
        <path
           style="fill:#8d552e;stroke-width:0.100381"
           d="m 17.698893,170.71398 0.357068,-0.16822 0.551477,-0.4236 0.551477,-0.42359 0.506971,-0.63042 0.50697,-0.63041 0.352766,-0.51865 0.352765,-0.51866 0.506561,-1.03726 0.50656,-1.03726 0.517059,-1.35515 0.517059,-1.35516 0.246807,-0.90343 0.246805,-0.90343 0.389521,-1.60611 0.389525,-1.6061 0.318282,-1.80687 0.318286,-1.80687 0.192767,-1.55592 0.192766,-1.55591 0.173767,-1.80687 0.173771,-1.80687 0.0011,-5.37042 0.0011,-5.37041 -0.176441,-1.85706 -0.176446,-1.85706 -0.15504,-1.35516 -0.155039,-1.35515 -0.248314,-1.55591 -0.248318,-1.55592 -0.457107,-2.05727 -0.45711,-2.05727 -0.630016,-1.9078 -0.630008,-1.9078 -0.520428,-1.09611 -0.520428,-1.09611 -0.416663,-0.71076 -0.416663,-0.71076 -0.330582,-0.41187 -0.330578,-0.41186 v -0.11514 -0.11514 h 0.04992 0.04992 l 0.934241,0.69303 0.934245,0.69303 0.934128,0.93817 0.934131,0.93817 0.389309,0.5521 0.389309,0.5521 0.290298,0.40153 0.290298,0.40152 0.604642,1.1042 0.604642,1.1042 0.502531,1.35515 0.502528,1.35515 0.106648,0.40153 0.106648,0.40153 0.246334,1.054 0.246329,1.05401 0.251934,1.50573 0.25193,1.50572 0.11567,1.10419 0.115666,1.1042 0.06643,0.65248 0.06643,0.65248 0.903435,0.0788 0.903434,0.0788 5.119461,-0.0286 5.119463,-0.0286 4.3666,0.01 4.366601,0.01 2.308777,0.12057 2.308777,0.12057 1.304961,0.0952 1.304962,0.0952 1.806869,0.15364 1.806869,0.15363 1.505724,0.15166 1.505724,0.15167 2.860877,0.40352 2.860876,0.40352 2.660113,0.39218 2.660112,0.39219 1.154389,0.14936 1.154389,0.14936 1.656297,0.15623 1.656296,0.15624 1.505724,0.0982 1.505725,0.0982 2.810685,0.001 2.810685,0.001 1.606107,-0.0987 1.606105,-0.0988 1.907251,-0.16056 1.907251,-0.16055 4.366598,-0.4982 4.3666,-0.4982 1.35515,-0.0951 1.35516,-0.0951 0.40152,-0.0523 0.40153,-0.0523 1.90725,-0.14618 1.90725,-0.14619 1.90725,-0.10115 1.90725,-0.10115 4.51717,-0.10222 4.51718,-0.10221 2.45935,-0.10672 2.45935,-0.10671 3.36278,-0.24777 3.36279,-0.24777 3.41297,-0.24163 3.41298,-0.24164 1.95744,-0.10657 1.95744,-0.10658 2.55973,-0.10236 2.55973,-0.10235 4.11565,-0.0631 4.11564,-0.0631 0.40005,0.21569 0.40004,0.21568 h -0.17814 -0.17814 l -0.92457,0.0947 -0.92458,0.0947 -1.90725,0.15997 -1.90725,0.15997 -1.13331,0.099 -1.1333,0.099 -3.83559,0.24375 -3.83558,0.24376 -2.40916,0.1046 -2.40916,0.10459 -3.01145,0.15262 -3.01144,0.15261 -2.86088,0.1493 -2.86088,0.14931 -1.05401,0.0544 -1.054,0.0544 -3.66393,0.1501 -3.66393,0.15011 -1.40534,0.0865 -1.40534,0.0865 -2.71031,0.21403 -2.7103,0.21403 -2.50954,0.24059 -2.50954,0.24059 -0.75287,0.0651 -0.75286,0.065 -4.11564,0.49743 -4.11565,0.49742 -1.003816,0.0929 -1.003816,0.0929 -1.590172,0.15417 -1.590171,0.15417 -2.528273,0.10312 -2.528273,0.10311 -2.524713,-0.10331 -2.524712,-0.10331 -1.588136,-0.15339 -1.588136,-0.15338 -1.054007,-0.099 -1.054007,-0.099 -3.563548,-0.54274 -3.563547,-0.54274 -2.358968,-0.35537 -2.358968,-0.35537 -1.706487,-0.19692 -1.706488,-0.19692 -1.104198,-0.11091 -1.104198,-0.11091 -2.057823,-0.19146 -2.057823,-0.19146 -1.505725,-0.10628 -1.505724,-0.10628 -1.85706,-0.10481 -1.85706,-0.10481 -6.976522,-0.0942 -6.976523,-0.0942 -1.355152,-0.0981 -1.355151,-0.0981 -0.935126,-0.0682 -0.935125,-0.0682 0.06677,0.59143 0.06676,0.59143 0.115499,1.05401 0.115499,1.054 2.308777,0.003 2.308778,0.003 3.212211,0.0845 3.212212,0.0845 0.60229,0.18032 0.60229,0.18033 2.559731,0.10979 2.559731,0.10979 1.505725,0.19187 1.505724,0.19186 1.85706,0.31135 1.85706,0.31135 0.65248,0.10923 0.652481,0.10922 1.355152,0.29295 1.355151,0.29294 0.702672,0.19278 0.702671,0.19278 0.841032,0.21455 0.84103,0.21455 2.020829,0.68925 2.020829,0.68925 0.478252,0.21155 0.478252,0.21155 0.344087,0.34409 0.344086,0.34409 0.06619,0.35281 0.06619,0.35282 -0.06631,0.35348 -0.06631,0.35348 -0.311765,0.35508 -0.311764,0.35508 -0.411051,0.27871 -0.411051,0.27871 -0.752862,0.30414 -0.752862,0.30414 -1.003816,0.25736 -1.003817,0.25735 -1.25477,0.31337 -1.25477,0.31336 -0.251387,0.0973 -0.251388,0.0973 -1.404909,0.29566 -1.40491,0.29566 -2.358968,0.45372 -2.358968,0.45373 -2.50954,0.40008 -2.509541,0.40009 -1.154389,0.14678 -1.154388,0.14677 -1.957442,0.16526 -1.957441,0.16525 -1.806869,0.0732 -1.80687,0.0732 0.87059,0.42197 0.870589,0.42198 1.056235,0.34235 1.056235,0.34235 1.586532,0.25466 1.586533,0.25467 1.104198,0.11639 1.104198,0.11638 7.779575,0.048 7.779575,0.048 6.17347,-0.11167 6.17347,-0.11167 1.957441,-0.0973 1.957442,-0.0973 1.405343,-0.10239 1.405342,-0.1024 1.415382,-0.0988 1.415383,-0.0988 1.596065,-0.20354 1.596067,-0.20353 2.45935,-0.40813 2.45935,-0.40812 1.25477,-0.28705 1.25477,-0.28703 1.304961,-0.31198 1.304961,-0.31198 1.656297,-0.45121 1.656297,-0.4512 2.108014,-0.58892 2.10801,-0.58891 2.25859,-0.55393 2.25858,-0.55393 1.60611,-0.30522 1.60611,-0.30523 1.45553,-0.2099 1.45553,-0.2099 2.45935,-0.14175 2.45935,-0.14175 5.62137,-0.10282 5.62137,-0.1028 4.21603,-0.1038 4.21603,-0.10381 1.99624,-0.14213 1.99624,-0.14212 2.06921,-0.16217 2.06922,-0.16216 2.81069,-0.24411 2.81068,-0.24412 1.95744,-0.1481 1.95745,-0.14809 2.20839,-0.11695 2.2084,-0.11695 3.51335,0.0588 3.51336,0.0588 2.45935,0.15759 2.45935,0.15759 2.55973,0.2 2.55973,0.19999 1.45553,0.10163 1.45554,0.10163 1.30496,0.0985 1.30496,0.0985 3.36279,0.24916 3.36278,0.24915 2.86088,0.0992 2.86087,0.0992 1.11519,0.0481 1.11519,0.0481 0.0636,-0.67314 0.0636,-0.67314 v -2.60992 -2.60992 l -0.10174,-1.90725 -0.10175,-1.90725 -0.16062,-1.55592 -0.16061,-1.55591 -0.0482,-0.42426 -0.0482,-0.42425 0.25535,-0.11635 0.25535,-0.11634 0.0511,-0.13311 0.0511,-0.13311 -0.0934,-0.57367 -0.0934,-0.57366 -0.12786,-0.0811 -0.12786,-0.0811 -0.12356,-0.002 -0.12357,-0.002 -0.0525,-0.22586 -0.0525,-0.22586 -0.0793,-0.40152 -0.0793,-0.40153 -1.90284,-0.0282 -1.90283,-0.0282 -2.45935,0.15831 -2.45935,0.1583 -4.21602,0.0919 -4.21603,0.0919 -2.81069,0.10296 -2.81068,0.10295 -4.51718,0.16611 -4.51717,0.16612 -10.23892,-0.0896 -10.23893,-0.0896 -5.42913,0.0144 -5.42913,0.0144 -0.9451,0.11631 -0.94511,0.11632 -2.66011,0.34186 -2.66011,0.34185 -2.00763,0.20373 -2.00764,0.20374 -2.50954,0.20214 -2.50954,0.20215 -1.40534,0.15809 -1.40534,0.15809 -1.45554,0.24033 -1.45553,0.24033 -1.45553,0.19979 -1.45554,0.1998 -1.45553,0.15183 -1.45553,0.15183 -2.40916,0.17835 -2.40916,0.17835 -7.277668,-0.003 -7.277667,-0.003 -4.31641,-0.16955 -4.316409,-0.16955 -3.613739,-0.11395 -3.613738,-0.11396 -1.18117,-0.0652 -1.181171,-0.0652 -0.02341,-0.10038 -0.02341,-0.10039 1.806869,-0.11914 1.806869,-0.11913 1.606106,-0.21256 1.606107,-0.21256 0.351335,-0.0846 0.351336,-0.0847 -0.376431,-0.0103 -0.37604,-0.0103 v -0.18848 -0.18847 l 0.12551,-0.10416 0.12551,-0.10416 2.810653,-0.0401 2.810652,-0.04 1.304961,-0.21772 1.304961,-0.21773 3.362784,-0.49935 3.362785,-0.49935 0.552098,-0.0643 0.552099,-0.0644 2.559732,-0.33485 2.559731,-0.33486 2.308777,-0.25899 2.308778,-0.259 1.1042,-0.15461 1.1042,-0.15462 2.55973,-0.40304 2.55973,-0.40303 3.16202,-0.53648 3.16202,-0.53648 3.01145,-0.48541 3.01145,-0.48542 -0.80015,-0.0297 -0.80016,-0.0297 -4.57026,0.254 -4.57027,0.254 -3.16202,0.14969 -3.16202,0.14969 -2.55973,0.0991 -2.559731,0.0991 -1.102898,0.0284 -1.102898,0.0284 -0.0307,-0.15941 -0.0307,-0.15942 0.129782,-0.10038 0.129782,-0.10037 2.308778,-0.12075 2.308775,-0.12074 2.55973,-0.19408 2.55973,-0.19409 1.61597,-0.10238 1.61596,-0.10239 5.04782,-0.45193 5.04782,-0.45192 1.51732,-0.0977 1.51732,-0.0977 2.30878,-0.14908 2.30877,-0.14909 2.30878,-0.10557 2.30878,-0.10556 5.67156,-0.19664 5.67156,-0.19663 0.90344,-0.0547 0.90343,-0.0547 2.33706,-0.10043 2.33708,-0.10043 2.53143,-0.19975 2.53145,-0.19975 3.51335,-0.29785 3.51336,-0.29785 3.16202,-0.25293 3.16202,-0.25293 2.81069,-0.19668 2.81068,-0.19667 2.00764,-0.10697 2.00763,-0.10697 2.7103,-0.16042 2.7103,-0.16043 5.01908,-0.0648 5.01909,-0.0647 0.063,0.0874 0.063,0.0874 -0.0496,0.18966 -0.0496,0.18965 h 0.67507 0.67507 l -0.069,-0.27605 -0.069,-0.27605 -0.5619,-1.15439 -0.5619,-1.15439 -0.30088,-0.50191 -0.30088,-0.50191 -0.43423,-0.51791 -0.43424,-0.51792 v -0.11162 -0.11162 l -0.22585,-0.0913 -0.22586,-0.0913 -2.7605,-0.1565 -2.76049,-0.1565 -2.35897,-0.10124 -2.35897,-0.10124 -3.21221,-0.12297 -3.21221,-0.12298 -12.5477,-9.1e-4 -12.54771,-9.1e-4 -5.52098,0.12773 -5.521,0.12773 -2.45934,0.0932 -2.45935,0.0932 -3.54799,0.40325 -3.54799,0.40325 -2.12357,0.15193 -2.12358,0.15193 -4.51717,0.20431 -4.51717,0.20432 -2.05783,0.14727 -2.05782,0.14727 -1.90725,0.20168 -1.90725,0.20169 -0.80305,0.10608 -0.80306,0.10609 -1.24299,0.25366 -1.24299,0.25367 -0.0801,-0.12954 -0.0801,-0.12954 0.0906,-0.16927 0.0906,-0.16928 0.27884,-0.0516 0.27883,-0.0516 2.96126,-0.50321 2.96126,-0.5032 1.30496,-0.15351 1.30496,-0.15351 2.25859,-0.23204 2.25858,-0.23204 -7.17728,-0.0596 -7.17729,-0.0595 -3.162019,-0.1284 -3.162021,-0.1284 -3.463166,0.46405 -3.463165,0.46404 -1.104198,0.0961 -1.104198,0.0961 -1.606106,0.1518 -1.606106,0.1518 -1.806869,0.11097 -1.806869,0.11098 -10.740834,0.0862 -10.740833,0.0862 -5.922515,0.11864 -5.922516,0.11864 -6.725569,-0.0596 -6.725568,-0.0596 -1.706489,-0.10438 -1.706485,-0.10439 -1.857063,-0.20755 -1.857059,-0.20755 -0.751585,-0.117 -0.751586,-0.117 -0.03597,-0.18718 -0.03597,-0.18718 1.038491,0.0868 1.038488,0.0868 8.231293,-0.0288 8.231293,-0.0288 6.22366,-0.0996 6.22366,-0.0996 5.019081,-0.14643 5.019081,-0.14643 5.270035,-0.004 5.270035,-0.004 3.814502,-0.0954 3.814502,-0.0954 1.90725,-0.15557 1.907251,-0.15557 1.028912,-0.0624 1.028911,-0.0624 v -0.0669 -0.0668 l -1.330056,-0.12365 -1.330057,-0.12364 -2.409158,-0.2974 -2.40916,-0.29739 -2.208395,-0.31642 -2.208396,-0.31641 -5.972706,0.11667 -5.972707,0.11667 -9.837398,0.19879 -9.837399,0.19879 -12.597893,0.26404 -12.597893,0.26404 -0.250955,-0.11772 -0.250954,-0.11771 -0.602237,-0.33865 -0.60224,-0.33866 0.150521,-0.0507 0.150521,-0.0507 9.335491,-0.20671 9.335491,-0.2067 5.169654,-0.10151 5.169653,-0.1015 7.729385,-0.15282 7.729384,-0.15283 7.127095,-0.14591 7.127095,-0.14591 1.756679,-0.003 1.756678,-0.003 -0.129928,-0.0824 -0.129929,-0.0824 4.387523,-0.0666 4.387522,-0.0666 h 12.765473 12.76567 l 5.29092,0.0667 5.29091,0.0667 -0.10978,0.0679 -0.1098,0.0679 4.99904,0.0694 4.99902,0.0694 4.66775,0.0933 4.66774,0.0933 8.23129,0.15493 8.2313,0.15493 7.72938,0.15958 7.72938,0.15957 7.17729,0.17678 7.17729,0.17678 0.70267,0.23753 0.70267,0.23753 0.816,0.78306 0.816,0.78306 0.24826,0.37425 0.24825,0.37426 0.46343,0.71977 0.46342,0.71977 0.34721,0.73576 0.34722,0.73577 0.19676,0.60229 0.19677,0.60228 0.27334,0.70268 0.27334,0.70267 0.52812,1.75668 0.52811,1.75667 -0.0466,0.31186 -0.0466,0.31185 0.2059,0.74216 0.20592,0.74215 0.2512,1.40534 0.2512,1.40534 0.2029,1.52938 0.2029,1.52937 0.15198,1.58245 0.15197,1.58246 0.002,0.15058 0.002,0.15057 0.0831,-0.13098 0.0831,-0.13098 0.0656,1.28537 0.0656,1.28536 v 3.56355 3.56355 l -0.0656,1.28537 -0.0656,1.28537 -0.0831,-0.13099 -0.0831,-0.13097 -0.002,0.15685 -0.002,0.15686 -0.15439,1.65001 -0.15438,1.65001 -0.29456,2.05783 -0.29456,2.05782 -0.25377,1.20458 -0.25375,1.20458 -0.15046,0.54857 -0.15045,0.54857 0.0539,0.16981 0.0539,0.16981 -0.50867,1.71278 -0.50866,1.71277 -0.30844,0.73087 -0.30844,0.73086 -0.17816,0.6058 -0.17815,0.6058 -0.32521,0.64897 -0.32522,0.64897 -0.42146,0.65248 -0.42147,0.65248 -0.18536,0.29734 -0.18536,0.29734 -0.66075,0.70648 -0.66075,0.70647 -0.50247,0.32367 -0.50247,0.32368 0.10038,0.01 0.10038,0.01 -0.20076,0.0863 -0.20077,0.0863 -86.67953,-3.8e-4 -86.67952,-3.8e-4 0.357071,-0.16823 z m 19.267535,-20.39701 2.358968,-0.10181 1.606105,-0.14808 1.606107,-0.14808 1.355151,-0.15428 1.355152,-0.15428 1.104198,-0.15059 1.104198,-0.15059 2.559731,-0.45234 2.559732,-0.45234 1.154388,-0.24337 1.154389,-0.24337 1.656297,-0.39316 1.656296,-0.39316 1.806869,-0.46804 1.80687,-0.46805 0.748047,-0.20346 0.748049,-0.20346 0.657294,-0.32078 0.657295,-0.32077 0.03052,-0.21284 0.03052,-0.21283 -0.231281,-0.25854 -0.231281,-0.25854 -0.702671,-0.34608 -0.702672,-0.34609 -0.903434,-0.30188 -0.903435,-0.30187 -1.304961,-0.36388 -1.304961,-0.36387 -0.250954,-0.10609 -0.250954,-0.10609 -0.803053,-0.18016 -0.803053,-0.18016 -1.706487,-0.41411 -1.706488,-0.41412 -0.602289,-0.0923 -0.60229,-0.0923 -1.308794,-0.25111 -1.308792,-0.25112 -1.702657,-0.25353 -1.702655,-0.25353 -1.254769,-0.10235 -1.254771,-0.10235 -1.555915,-0.10366 -1.555915,-0.10368 -4.517173,-0.29626 -4.517173,-0.29626 -0.891141,-0.0365 -0.89115,-0.0365 0.06312,0.67914 0.06312,0.67914 0.09671,0.25436 0.09671,0.25436 0.229409,0.0407 0.229409,0.0407 1.154387,0.21875 1.154388,0.21875 0.903435,0.3568 0.903434,0.35679 0.33821,0.31506 0.33821,0.31506 0.141484,0.32991 0.141484,0.32991 -0.104219,0.38704 -0.10422,0.38704 -0.387437,0.35002 -0.387436,0.35003 -0.552156,0.20659 -0.552155,0.20658 -0.891416,0.21905 -0.891415,0.21905 -0.232366,0.0892 -0.232365,0.0892 0.06848,0.22505 0.06848,0.22505 0.231269,0.51269 0.231272,0.5127 0.359239,0.56159 0.35924,0.56158 v 0.0629 0.0629 l 0.592369,0.71988 0.59237,0.71987 0.386351,0.36427 0.386352,0.36427 0.150572,0.0544 0.150573,0.0544 0.150572,0.008 0.150572,0.008 2.358969,-0.10181 z m -5.58078,-6.17738 0.913034,-0.25675 0.652481,-0.19532 0.65248,-0.19531 0.150573,-0.0972 0.150572,-0.0972 -0.109513,-0.17853 -0.109513,-0.17852 -0.467055,-0.35134 -0.467055,-0.35133 -0.527629,-0.21693 -0.527631,-0.21694 -0.953627,-0.26054 -0.953624,-0.26055 -0.08144,7.6e-4 -0.08144,7.6e-4 0.06592,0.47681 0.06592,0.47681 0.145839,0.60229 0.145844,0.60229 0.153791,0.47681 0.153792,0.47682 h 0.05762 0.05762 l 0.913035,-0.25676 z m 89.725672,-19.58491 -0.12548,-0.0506 -0.12547,0.0506 -0.12548,0.0506 h 0.25095 0.25096 z m 32.39817,16.73762 -1.05401,-0.0584 -0.12548,-0.081 -0.12547,-0.081 v -0.17606 -0.17606 l 0.28522,-0.27326 0.28523,-0.27326 1.99845,-0.14176 1.99846,-0.14177 2.86088,-0.15673 2.86087,-0.15672 3.36279,-0.16326 3.36278,-0.16325 10.79103,-0.0211 10.79102,-0.0211 0.38509,-0.0785 0.38509,-0.0785 -0.0337,0.23856 -0.0338,0.23856 -0.5521,0.0671 -0.5521,0.0671 -3.56354,0.15908 -3.56355,0.15909 -4.16584,0.15246 -4.16584,0.15247 -2.50953,0.14871 -2.50955,0.14871 -1.6061,0.10221 -1.60611,0.10221 -2.45935,0.19699 -2.45935,0.19699 -2.1582,0.1015 -2.15821,0.1015 -1.45553,-0.0165 -1.45553,-0.0165 z m 20.78659,-4.76676 -0.13173,-0.15872 0.16384,-0.25006 0.16386,-0.25006 0.22445,-0.14285 0.22446,-0.14286 1.1042,-0.31388 1.1042,-0.31388 1.70649,-0.29355 1.70649,-0.29355 1.20457,-0.15274 1.20458,-0.15275 2.04763,-0.20272 2.04762,-0.20273 1.61631,-0.10392 1.6163,-0.10391 2.2084,-0.0944 2.20839,-0.0944 0.44261,-0.10681 0.4426,-0.10681 0.1095,0.11197 0.10949,0.11197 -0.29166,0.23458 -0.29165,0.23458 -0.91293,0.25112 -0.91292,0.25112 -0.85324,0.15733 -0.85325,0.15734 -1.55591,0.14614 -1.55592,0.14615 -1.20458,0.0636 -1.20458,0.0636 -1.55591,0.19329 -1.55592,0.19329 -2.40915,0.35618 -2.40916,0.35618 -1.6563,0.25551 -1.6563,0.25551 -0.25657,0.0499 -0.25658,0.0499 z M 27.430172,122.62582 v -0.18847 l 0.125477,-0.10115 0.125478,-0.10115 1.706489,-0.0675 1.706487,-0.0675 1.656296,-0.14829 1.656297,-0.14829 2.409159,-0.25342 2.409159,-0.25341 0.451717,-0.14525 0.451718,-0.14526 1.90725,-0.49358 1.907251,-0.49358 1.706488,-0.40091 1.706487,-0.40091 1.048387,-0.21431 1.048386,-0.21431 1.511345,-0.18889 1.511345,-0.18888 1.455533,-0.11817 1.455534,-0.11816 3.11183,0.002 3.11183,0.002 1.706488,0.10711 1.706487,0.10711 2.108014,0.15854 2.108014,0.15853 3.362785,0.29508 3.362784,0.29507 3.11183,0.25346 3.11183,0.25345 1.656297,0.0942 1.656297,0.0942 4.466982,0.29969 4.466982,0.29968 2.08201,0.12107 2.08201,0.12107 3.589555,-0.11915 3.58955,-0.11915 2.10801,-0.0959 2.10802,-0.0959 4.8685,-0.25499 4.86851,-0.255 3.98356,-0.24891 3.98355,-0.24891 0.26128,0.11905 0.26128,0.11904 0.15412,-0.15413 0.15414,-0.15413 0.39708,0.13681 0.39708,0.1368 3.6862,-0.24976 3.68621,-0.24976 2.01902,-0.1 2.01902,-0.1 3.3514,-0.20201 3.35139,-0.20201 2.96126,-0.14848 2.96125,-0.14848 1.35516,-0.10688 1.35515,-0.10689 1.25477,-0.0953 1.25477,-0.0953 1.15439,-0.0768 1.15439,-0.0768 9.03434,0.0106 9.03435,0.0106 1.58046,0.0943 1.58046,0.0943 0.12377,0.12377 0.12377,0.12378 -0.10922,0.1729 -0.10922,0.17291 h -1.54482 -1.54482 l -6.47462,-0.14015 -6.47461,-0.14014 -3.61374,0.11862 -3.61373,0.11862 -3.46317,0.19992 -3.46317,0.19992 -1.86403,0.0953 -1.86404,0.0953 -2.90409,0.20579 -2.90409,0.20579 -3.41297,0.25106 -3.41298,0.25106 -1.50573,0.1035 -1.50572,0.10349 -3.76431,0.29503 -3.76431,0.29504 -2.57492,0.20274 -2.57492,0.20275 -1.6913,0.0948 -1.6913,0.0948 -3.06164,0.2014 -3.06164,0.2014 -3.16202,0.15238 -3.16202,0.15238 -4.818317,0.1483 -4.818318,0.14829 -4.165838,0.12041 -4.165837,0.12041 -6.424423,0.003 -6.424424,0.003 -1.555915,-0.11952 -1.555915,-0.11952 -2.911067,-0.10249 -2.911067,-0.10249 -3.513357,-0.15493 -3.513356,-0.15494 -3.086475,-0.0739 -3.086476,-0.0739 -2.434513,0.0713 -2.434515,0.0712 -3.11183,0.25359 -3.11183,0.25358 -2.108014,0.16026 -2.108014,0.16025 -1.505724,0.0948 -1.505725,0.0948 -2.685207,0.002 -2.685211,0.002 z"
           id="path1322" />
        <path
           style="fill:#7b4322;stroke-width:0.100381"
           d="m 17.492392,170.79671 0.150574,-0.0973 0.182133,-0.002 0.182132,-0.002 0.511417,-0.42662 0.511413,-0.42663 0.292468,-0.30114 0.292465,-0.30115 0.583293,-0.80305 0.583293,-0.80305 0.556421,-1.1042 0.556417,-1.1042 0.515606,-1.35515 0.515602,-1.35515 0.246807,-0.90344 0.246805,-0.90343 0.389521,-1.60611 0.389525,-1.6061 0.318282,-1.80687 0.318286,-1.80687 0.192767,-1.55591 0.192766,-1.55592 0.173873,-1.80687 0.173877,-1.80687 0.0011,-5.4708 0.0011,-5.4708 -0.176537,-1.85705 -0.17654,-1.85706 -0.15504,-1.35516 -0.15504,-1.35515 -0.248314,-1.55591 -0.248314,-1.55592 -0.45711,-2.05727 -0.45711,-2.05727 -0.629193,-1.91488 -0.629196,-1.91489 -0.76952,-1.5604 -0.769523,-1.5604 -0.345049,-0.48532 -0.345048,-0.48532 0.03917,-0.0392 0.03917,-0.0392 0.584875,0.43307 0.584876,0.43307 0.593127,0.53906 0.593127,0.53906 0.611452,0.67804 0.611452,0.67804 0.471137,0.65173 0.471137,0.65173 0.652931,1.19541 0.652935,1.19541 0.444689,1.15439 0.444693,1.15439 0.160996,0.5521 0.160993,0.55209 0.243427,1.05401 0.243428,1.05401 0.206618,1.20458 0.206619,1.20458 0.1481,1.15439 0.148105,1.15439 0.06599,0.88816 0.06599,0.88817 0.178141,0.17814 0.178141,0.17814 1.393041,0.082 1.393037,0.082 4.517172,-0.0442 4.517173,-0.0442 4.466982,0.009 4.466982,0.009 2.308778,0.12084 2.308777,0.12084 1.304961,0.0952 1.304961,0.0952 1.806869,0.15363 1.806869,0.15364 1.505725,0.15166 1.505724,0.15167 2.860876,0.40352 2.860876,0.40352 2.660113,0.39218 2.660113,0.39219 1.154389,0.14936 1.154388,0.14936 1.656297,0.15623 1.656297,0.15624 1.505724,0.0982 1.505724,0.0982 2.710304,0.001 2.710304,10e-4 1.606106,-0.0987 1.606106,-0.0988 1.90725,-0.16055 1.907251,-0.16056 4.366601,-0.4982 4.3666,-0.49819 1.35515,-0.0951 1.35516,-0.0951 0.40152,-0.0522 0.40153,-0.0523 1.90725,-0.14619 1.90725,-0.14618 1.90725,-0.10115 1.90725,-0.10115 4.51717,-0.10222 4.51718,-0.10222 2.45935,-0.10672 2.45934,-0.10671 3.36279,-0.24777 3.36279,-0.24776 3.41297,-0.24164 3.41297,-0.24163 1.95745,-0.10663 1.95744,-0.10662 2.58788,-0.10273 2.58787,-0.10272 4.03731,-0.0606 4.03731,-0.0606 -0.10038,0.1003 -0.10038,0.10029 -2.30878,0.21181 -2.30878,0.2118 -0.95362,0.0543 -0.95363,0.0543 -4.9187,0.29435 -4.9187,0.29434 -4.51717,0.25268 -4.51717,0.25268 -3.06164,0.15396 -3.06164,0.15396 -2.1582,0.0976 -2.15821,0.0976 -1.70649,0.0557 -1.70649,0.0557 -1.35515,0.0962 -1.35515,0.0962 -2.1582,0.10398 -2.15821,0.10398 -1.30496,0.10226 -1.30496,0.10227 -2.50954,0.2393 -2.50954,0.2393 -0.75286,0.0651 -0.75287,0.0651 -4.11564,0.49742 -4.115649,0.49743 -1.003817,0.0929 -1.003816,0.0929 -1.59329,0.15447 -1.59329,0.15446 -2.576878,0.10458 -2.576877,0.10457 -2.571336,-0.10487 -2.571335,-0.10487 -1.590171,-0.15359 -1.590164,-0.15357 -1.054007,-0.099 -1.054007,-0.099 -3.563547,-0.54275 -3.563548,-0.54274 -2.358968,-0.35537 -2.358968,-0.35536 -1.706487,-0.19693 -1.706488,-0.19692 -1.104198,-0.11091 -1.104197,-0.11091 -2.057824,-0.19145 -2.057823,-0.19146 -1.505724,-0.10628 -1.505724,-0.10628 -1.857061,-0.10482 -1.85706,-0.1048 -6.976522,-0.0942 -6.976523,-0.0942 -1.355152,-0.0974 -1.35515,-0.0974 -0.856708,-0.0659 -0.856708,-0.0659 -0.117507,0.14159 -0.11751,0.14159 0.175262,1.58724 0.175261,1.58724 0.196664,0.14908 0.196667,0.14908 0.953625,-0.0648 0.953624,-0.0648 4.165837,0.11153 4.165838,0.11152 1.104197,0.19773 1.104198,0.19772 2.057823,0.35423 2.057824,0.35422 0.173691,3.8e-4 0.173691,3.8e-4 0.06487,0.10496 0.06487,0.10497 -0.389135,-0.0611 -0.389135,-0.0611 -1.254771,-0.0989 -1.25477,-0.0989 -1.606106,-0.10549 -1.606106,-0.1055 -4.3666,-0.2932 -4.366601,-0.29321 -0.903433,-0.0141 -0.903434,-0.0141 -0.139895,0.01 -0.13989,0.01 0.06366,0.68498 0.06366,0.68499 0.11221,0.32188 0.112206,0.32188 0.285275,0.14752 0.285278,0.14752 h 0.257689 0.257693 l 0.976968,0.21032 0.97697,0.21031 0.853243,0.35022 0.853244,0.35022 0.235396,0.21742 0.235397,0.21743 0.149918,0.28824 0.149919,0.28825 -0.06171,0.32895 -0.06171,0.32896 -0.208028,0.26447 -0.208028,0.26446 -0.482943,0.24473 -0.482943,0.24472 -0.987784,0.25984 -0.987783,0.25984 -0.376431,0.0984 -0.376431,0.0984 0.004,0.27203 0.004,0.27201 0.221863,0.50191 0.221862,0.50191 0.445234,0.75286 0.445233,0.75286 0.558548,0.69845 0.558548,0.69844 0.301145,0.28705 0.301145,0.28705 0.413755,0.193 0.413754,0.19299 2.346741,-0.10104 2.346739,-0.10105 1.606106,-0.14808 1.606106,-0.14807 1.355152,-0.15428 1.355152,-0.15429 1.104198,-0.15059 1.104197,-0.15058 2.559731,-0.45235 2.559732,-0.45234 1.154389,-0.24337 1.154388,-0.24337 1.656297,-0.39316 1.656297,-0.39316 1.806869,-0.46804 1.806869,-0.46804 0.752862,-0.19982 0.752862,-0.19981 0.726955,-0.35348 0.726954,-0.35348 0.104241,-0.19477 0.10424,-0.19478 -0.152104,-0.29413 -0.152104,-0.29414 -0.301445,-0.21465 -0.301445,-0.21464 -0.728982,-0.33376 -0.728981,-0.33375 -0.853244,-0.26321 -0.853244,-0.2632 -1.555915,-0.46357 -1.555915,-0.46357 -0.351336,-0.0853 -0.351335,-0.0853 -2.108014,-0.51588 -2.108014,-0.51589 -0.552099,-0.0784 -0.552099,-0.0784 -0.931439,-0.17834 -0.931439,-0.17834 0.09251,-0.0925 0.09251,-0.0925 0.198342,0.10615 0.198341,0.10615 0.046,-0.046 0.046,-0.046 1.046301,0.20106 1.046301,0.20105 0.277676,0.0447 0.277676,0.0447 0.8245,0.11289 0.8245,0.1129 1.708509,0.35262 1.708509,0.35262 0.752862,0.15164 0.752863,0.15164 2.108014,0.43545 2.108013,0.43544 0.451718,0.16066 0.451717,0.16066 0.383417,0.26533 0.383415,0.26533 0.143588,0.27767 0.143587,0.27767 v 0.41149 0.4115 l -0.14794,0.28608 -0.14794,0.28609 -0.408075,0.34929 -0.408074,0.3493 -0.874424,0.36116 -0.874423,0.36116 -0.953626,0.24632 -0.953625,0.24632 -1.606106,0.42236 -1.606106,0.42236 -1.304961,0.2835 -1.304961,0.28349 -2.358968,0.45395 -2.358968,0.45394 -2.50954,0.40053 -2.509541,0.40052 -1.204579,0.15023 -1.20458,0.15023 -1.85706,0.16017 -1.857059,0.16017 -2.007633,0.0686 -2.007632,0.0685 v 0.15057 0.15058 l 0.839453,0.42092 0.839453,0.42092 1.268561,0.40599 1.268561,0.40598 1.555915,0.2483 1.555915,0.24829 1.104197,0.11609 1.104198,0.11609 7.679195,0.0482 7.679193,0.0482 6.17347,-0.11172 6.17347,-0.11172 1.957441,-0.0973 1.957442,-0.0973 1.405342,-0.10239 1.405343,-0.1024 1.415382,-0.0988 1.415382,-0.0988 1.596066,-0.20354 1.596067,-0.20353 2.45935,-0.40813 2.459349,-0.40813 1.254771,-0.28704 1.25477,-0.28704 1.304961,-0.31198 1.304961,-0.31197 1.656297,-0.45121 1.656297,-0.4512 2.108013,-0.58892 2.10801,-0.58891 2.25859,-0.55393 2.25858,-0.55393 1.60611,-0.30523 1.6061,-0.30522 1.45554,-0.2099 1.45553,-0.2099 2.45935,-0.14175 2.45935,-0.14176 5.62137,-0.10281 5.62137,-0.10281 4.21603,-0.1038 4.21603,-0.1038 1.99624,-0.14213 1.99624,-0.14213 2.06921,-0.16216 2.06922,-0.16216 2.81068,-0.24412 2.81069,-0.24411 1.95744,-0.1481 1.95744,-0.14809 2.2084,-0.11688 2.20839,-0.11687 3.61374,0.0583 3.61374,0.0583 2.45935,0.158 2.45935,0.15799 2.55973,0.2 2.55973,0.19999 1.45554,0.10163 1.45553,0.10163 1.30496,0.0985 1.30496,0.0985 3.36278,0.24931 3.36279,0.24932 2.91107,0.1001 2.91106,0.1001 0.96432,0.0413 0.96432,0.0413 0.13376,-0.0827 0.13378,-0.0827 0.0729,-0.58463 0.0729,-0.58463 0.008,-2.66011 0.008,-2.66012 -0.10175,-1.90725 -0.10174,-1.90725 -0.16131,-1.55591 -0.16131,-1.55592 -0.0466,-0.46717 -0.0466,-0.46719 0.20054,-0.0636 0.20052,-0.0636 0.0626,-0.16313 0.0626,-0.16312 -0.067,-0.59246 -0.067,-0.59245 -0.14403,-0.14404 -0.14404,-0.14403 h -0.13618 -0.13618 l -0.0693,-0.55474 -0.0693,-0.55474 -0.2112,-0.14793 -0.21121,-0.14794 -1.91001,0.003 -1.91001,0.003 -2.2084,0.14796 -2.20839,0.14796 -4.31641,0.0965 -4.31641,0.0965 -2.81069,0.10284 -2.81068,0.10285 -4.51718,0.16611 -4.51717,0.16611 -10.3393,-0.0872 -10.33931,-0.0872 -3.86469,0.002 -3.8647,0.002 -2.05782,0.11721 -2.05782,0.11721 -1.45554,0.15299 -1.45553,0.153 -1.55592,0.19924 -1.55591,0.19924 -2.05782,0.20352 -2.05783,0.20352 -1.10419,0.1007 -1.1042,0.1007 -1.45554,0.15402 -1.45553,0.15403 -0.95362,0.10301 -0.95363,0.10301 -1.30496,0.14636 -1.30496,0.14636 -0.15057,0.0452 -0.15058,0.0452 -1.80687,0.25119 -1.80687,0.2512 -1.45553,0.15118 -1.45553,0.15118 -2.40916,0.17835 -2.40916,0.17835 -7.428235,-0.004 -7.42824,-0.004 -4.216028,-0.16838 -4.216028,-0.16837 -3.914883,-0.12576 -3.914883,-0.12574 1.304961,-0.12507 1.304961,-0.12507 1.907251,-0.26105 1.907251,-0.26104 0.39485,-0.11617 0.39485,-0.11616 -0.244278,-0.0682 -0.244277,-0.0682 -0.777958,-0.01 -0.777915,-0.01 v -0.0844 -0.0844 l 2.484445,-0.0648 2.484445,-0.0648 1.25477,-0.15469 1.25477,-0.15468 0.752862,-0.0923 0.752863,-0.0923 2.961257,-0.45268 2.961258,-0.45268 0.552099,-0.0644 0.552099,-0.0644 2.559731,-0.33486 2.559731,-0.33485 2.308778,-0.259 2.308773,-0.25899 1.1042,-0.15439 1.10419,-0.15439 2.50955,-0.39583 2.50954,-0.39582 3.2624,-0.55153 3.2624,-0.55153 3.41298,-0.54436 3.41297,-0.54436 0.35134,-0.0649 0.35133,-0.0648 0.35134,0.005 0.35133,0.005 0.39418,-0.1375 0.39417,-0.1375 -0.51502,-0.0708 -0.51502,-0.0708 -0.0984,0.0608 -0.0984,0.0608 -1.68796,0.05 -1.68796,0.05 -4.51717,0.24769 -4.51717,0.24769 -3.11183,0.14874 -3.11183,0.14873 -2.96126,0.10476 -2.961254,0.10475 -0.727767,0.0341 -0.727767,0.0341 v -0.0665 -0.0665 l 2.283682,-0.1237 2.283676,-0.12371 2.55973,-0.19409 2.55973,-0.19409 1.61597,-0.10238 1.61596,-0.10239 5.04782,-0.45192 5.04782,-0.45193 1.51732,-0.0977 1.51732,-0.0977 2.30877,-0.14908 2.30878,-0.14909 2.30878,-0.10556 2.30877,-0.10557 5.67157,-0.19664 5.67156,-0.19663 0.90343,-0.0547 0.90344,-0.0547 2.33706,-0.10043 2.33708,-0.10042 2.53143,-0.19976 2.53145,-0.19975 3.51335,-0.29785 3.51336,-0.29785 3.16202,-0.25293 3.16202,-0.25293 2.81068,-0.19712 2.81069,-0.19711 2.10802,-0.11139 2.10801,-0.11139 2.55973,-0.15189 2.55973,-0.15188 3.61374,-0.0432 3.61374,-0.0432 1.48536,-0.034 1.48536,-0.034 -0.08,0.0676 -0.08,0.0676 -0.40152,0.11678 -0.40153,0.11679 -0.30115,0.0305 -0.30114,0.0305 0.95363,0.079 0.95362,0.079 0.54176,-0.0332 0.54176,-0.0332 0.10077,-0.16069 0.10077,-0.1607 -0.5899,-1.24465 -0.5899,-1.24465 -0.39117,-0.64927 -0.39119,-0.64927 -0.4394,-0.53942 -0.4394,-0.53941 v -0.0823 -0.0829 l -0.42662,-0.15409 -0.42663,-0.15409 -2.60992,-0.15356 -2.60992,-0.15356 -2.55973,-0.10685 -2.55973,-0.10685 -2.60992,-0.0975 -2.60993,-0.0975 -8.83358,-0.0625 -8.83358,-0.0625 -7.57882,0.12181 -7.57881,0.12181 -2.66011,0.0947 -2.66011,0.0947 -1.75668,0.0879 -1.75668,0.0879 -1.40534,0.12215 -1.40535,0.12216 -2.20283,0.23945 -2.20283,0.23945 -2.11358,0.15115 -2.11358,0.15115 -4.51717,0.20432 -4.51717,0.20431 -2.05782,0.14727 -2.05783,0.14727 -1.90725,0.20169 -1.90725,0.20169 -0.80305,0.10608 -0.80305,0.10608 -1.23798,0.25263 -1.23797,0.25263 -0.0558,-0.0558 -0.0558,-0.0558 0.28997,-0.11111 0.28997,-0.11111 2.91107,-0.48534 2.91107,-0.48534 1.35515,-0.15744 1.35515,-0.15744 2.60992,-0.25491 2.60993,-0.2549 0.30114,-0.0564 0.30115,-0.0564 0.5019,-0.0384 0.50191,-0.0384 0.5521,-0.0817 0.5521,-0.0817 -0.7021,-0.0627 -0.70209,-0.0627 -0.15116,0.0692 -0.15114,0.0692 -8.88377,-0.0991 -8.88378,-0.0991 -3.011448,0.002 -3.011449,0.002 -2.710304,0.36944 -2.710304,0.36944 -1.104198,0.0969 -1.104197,0.0969 -1.606106,0.1518 -1.606106,0.1518 -1.806869,0.11098 -1.806869,0.11097 -10.740834,0.0862 -10.740833,0.0862 -5.922516,0.11861 -5.922515,0.11862 -6.82595,-0.0596 -6.82595,-0.0596 -1.756678,-0.10771 -1.756679,-0.10771 -1.747095,-0.19452 -1.747096,-0.19452 -0.02614,-0.0263 -0.02614,-0.0263 8.448622,-0.0274 8.448619,-0.0274 6.223661,-0.10111 6.22366,-0.1011 5.019081,-0.14643 5.019081,-0.14643 5.270035,-0.004 5.270036,-0.004 3.814501,-0.0954 3.814502,-0.0954 1.90725,-0.15274 1.907251,-0.15273 1.453734,-0.10929 1.453733,-0.10928 0.193519,-0.10357 0.19352,-0.10357 -0.141529,-0.075 -0.141528,-0.075 -1.80687,-0.16904 -1.806869,-0.16904 -2.409159,-0.29671 -2.409158,-0.29672 -1.455534,-0.20046 -1.455533,-0.20046 -1.706488,-0.10133 -1.706487,-0.10133 -7.177286,0.15002 -7.177286,0.15001 -7.578812,0.15099 -7.578813,0.15098 -12.820469,0.27106 -12.82047,0.27106 -0.178949,-0.15715 -0.178949,-0.15716 -0.389677,-0.19659 -0.389677,-0.19658 2.397311,-0.0649 2.397306,-0.0649 11.744649,-0.24854 11.74465,-0.24854 7.980339,-0.15636 7.980338,-0.15636 7.629003,-0.15285 7.629004,-0.15286 4.216028,-0.0801 4.216027,-0.0801 -2.961257,-0.0352 -2.961258,-0.0352 3.312593,-0.0673 3.312594,-0.0673 15.157627,-2.9e-4 15.15763,-2.9e-4 4.01526,0.0676 4.01527,0.0676 -3.56355,0.0357 -3.56355,0.0357 4.76813,0.0746 4.76813,0.0746 6.32404,0.11307 6.32404,0.11306 7.17729,0.14706 7.17728,0.14707 6.22366,0.1015 6.22365,0.1015 6.17348,0.14557 6.17347,0.14556 5.21984,0.10795 5.21985,0.10794 0.68531,0.0991 0.68531,0.0991 0.46939,0.23785 0.46937,0.23786 0.86859,0.90102 0.86859,0.90102 0.15508,0.2999 0.15509,0.2999 0.41214,0.6205 0.41215,0.62049 0.34565,0.72126 0.34565,0.72126 v 0.18677 0.18677 l 0.29269,0.66931 0.29267,0.6693 0.40199,1.25477 0.402,1.25477 0.22326,0.70267 0.22324,0.70267 0.0253,0.71491 0.0253,0.7149 0.10841,0.20257 0.1084,0.20256 0.30035,1.64227 0.30035,1.64226 0.20219,1.52937 0.20221,1.52937 0.16212,1.58246 0.16212,1.58246 0.0748,1.00382 0.0748,1.00381 0.0323,-0.90343 0.0323,-0.90344 0.072,1.00382 0.072,1.00381 v 4.16584 4.16584 l -0.072,1.00382 -0.072,1.00381 -0.0331,-0.90343 -0.0331,-0.90344 -0.0684,0.95363 -0.0684,0.95362 -0.1708,1.70649 -0.1708,1.70649 -0.25214,1.80687 -0.25213,1.80687 -0.24743,1.30496 -0.24742,1.30496 -0.10879,0.25095 -0.10879,0.25096 -0.0751,0.75286 -0.0751,0.75286 -0.45961,1.50572 -0.45962,1.50573 -0.31753,0.75286 -0.31752,0.75286 -0.17377,0.60229 -0.17377,0.60229 -0.28001,0.5521 -0.28,0.5521 -0.42133,0.65248 -0.42131,0.65248 -0.1792,0.28794 -0.17921,0.28794 -0.7072,0.76271 -0.7072,0.76272 -0.41663,0.26421 -0.41661,0.26422 -0.14594,0.0574 -0.14594,0.0575 0.20077,0.015 0.20076,0.015 -0.20076,0.0863 -0.20077,0.0863 -86.67952,0.005 -86.679537,0.006 z m 13.953047,-26.50664 0.752862,-0.20729 0.711903,-0.20725 0.711905,-0.20725 0.238113,-0.17961 0.238114,-0.17961 -0.130968,-0.24472 -0.130968,-0.24472 -0.689251,-0.45646 -0.689251,-0.45645 -0.430944,-0.15313 -0.430943,-0.15312 -0.975858,-0.26605 -0.975858,-0.26605 -0.108059,0.0668 -0.108063,0.0668 0.06346,0.46791 0.06346,0.46791 0.234405,0.90344 0.234405,0.90343 0.105992,0.27606 0.105988,0.27604 0.228343,3.1e-4 0.228342,3e-4 0.752864,-0.20729 z m 122.014911,-3.20067 -1.00276,-0.0558 -0.0299,-0.15675 -0.0299,-0.15674 0.19633,-0.17768 0.19633,-0.17767 1.94049,-0.13701 1.9405,-0.137 2.86088,-0.15684 2.86087,-0.15683 3.36279,-0.16354 3.36278,-0.16354 10.71077,-0.0146 10.71077,-0.0146 -0.0201,0.0192 -0.0201,0.0192 -3.56355,0.16013 -3.56355,0.16012 -4.16584,0.15246 -4.16583,0.15246 -2.50954,0.14871 -2.50954,0.14872 -1.60611,0.10221 -1.60611,0.1022 -2.45935,0.19699 -2.45934,0.197 -2.15821,0.1015 -2.15821,0.1015 -1.55591,-0.0189 -1.55592,-0.0189 z m -104.167059,-1.23031 0.120458,-0.12046 0.120458,0.12046 0.120458,0.12046 h -0.240916 -0.240916 z m -0.60229,-0.10038 0.120458,-0.12046 0.120458,0.12046 0.120458,0.12046 h -0.240916 -0.240916 z m -0.60229,-0.10038 0.120458,-0.12046 0.120458,0.12046 0.120458,0.12046 h -0.240916 -0.240916 z m -1.134312,-0.0695 -0.401527,-0.061 0.131183,-0.0847 0.131182,-0.0847 0.270345,0.0756 0.270343,0.0756 0.166775,-0.0208 0.166775,-0.0207 0.06501,0.10518 0.06501,0.10519 -0.231783,-0.0142 -0.231783,-0.0142 z m 127.434461,-3.17947 v -0.0568 l 0.10268,-0.19187 0.10269,-0.19186 0.21862,-0.117 0.21862,-0.117 1.00875,-0.29065 1.00876,-0.29065 1.70649,-0.29335 1.70648,-0.29334 1.20458,-0.15275 1.20458,-0.15274 2.0526,-0.20323 2.05261,-0.20322 2.41299,-0.14992 2.413,-0.14991 1.0052,-0.005 1.0052,-0.005 0.82943,-0.12488 0.82944,-0.12487 -0.13906,0.13906 -0.13907,0.13907 -0.84095,0.23409 -0.84094,0.23409 -0.85324,0.15676 -0.85324,0.15677 -1.55592,0.14615 -1.55591,0.14614 -1.20458,0.0636 -1.20458,0.0636 -1.55592,0.19329 -1.55592,0.1933 -2.40915,0.35582 -2.40916,0.35582 -1.90725,0.29827 -1.90725,0.29827 -0.0753,-0.001 -0.0753,-0.001 z M 27.630937,122.52533 v -0.0882 l 1.681391,-0.068 1.681393,-0.068 1.606106,-0.144 1.606106,-0.144 2.50954,-0.25594 2.509541,-0.25594 0.250954,-0.10603 0.250954,-0.10604 1.706488,-0.44289 1.706487,-0.4429 2.057823,-0.49271 2.057824,-0.49272 1.048386,-0.21429 1.048386,-0.21429 1.511346,-0.18888 1.511344,-0.18889 1.455534,-0.11873 1.455533,-0.11873 3.212212,0.002 3.212212,0.002 1.706487,0.10762 1.706488,0.10762 2.108014,0.15853 2.108014,0.15854 3.362784,0.29507 3.362784,0.29508 3.11183,0.25345 3.111831,0.25346 1.656297,0.0942 1.656296,0.0942 4.567364,0.31849 4.567364,0.31849 5.219844,0.0116 5.219846,0.0116 2.45935,-0.128 2.45935,-0.12799 4.61755,-0.24541 4.61756,-0.24542 2.78021,-0.16283 2.78023,-0.16284 0.0973,0.0601 0.0973,0.0602 0.27082,-0.10297 0.27084,-0.10297 -0.0646,0.16837 -0.0646,0.16838 2.13609,-0.0682 2.13607,-0.0683 2.1582,-0.14983 2.1582,-0.14983 1.70649,-0.14312 1.70649,-0.14312 2.04052,-0.11873 2.04052,-0.11872 0.0904,0.0903 0.0903,0.0904 -4.59021,0.33031 -4.59022,0.33031 -3.06164,0.24305 -3.06164,0.24305 -3.26056,0.25589 -3.26057,0.2559 -1.60794,0.0897 -1.60795,0.0897 -3.2624,0.20538 -3.2624,0.20538 -1.25477,0.10198 -1.25477,0.10198 -1.85706,0.0997 -1.85706,0.0997 -4.768128,0.14817 -4.768127,0.14817 -4.517173,0.1136 -4.517173,0.11363 -6.876141,-0.0432 -6.876141,-0.0432 -3.061639,-0.11627 -3.06164,-0.11627 -2.258586,-0.10346 -2.258587,-0.10347 -2.879046,-0.15015 -2.879046,-0.15015 -4.448812,-0.0202 -4.448812,-0.0202 -3.11183,0.26705 -3.11183,0.26705 -2.108014,0.16025 -2.108014,0.16026 -1.505725,0.0948 -1.505724,0.0948 -2.635019,0.002 -2.635016,0.002 z m 114.585613,-3.42515 0.062,-0.10039 h 0.43987 0.43987 l 0.062,0.10039 0.062,0.10038 h -0.56395 -0.56394 z m 2.00764,-0.10039 0.062,-0.10038 h 0.13873 0.13873 l 0.062,0.10038 0.062,0.10039 h -0.2628 -0.2628 z m 8.26141,-0.52198 0.12045,-0.12046 0.12046,0.12046 0.12046,0.12046 h -0.24092 -0.24091 z m 0.96408,-0.0647 0.0524,-0.0848 1.38394,-0.11954 1.38394,-0.11954 1.1042,-0.12189 1.1042,-0.12188 10.33931,0.009 10.3393,0.009 1.44744,0.0917 1.44742,0.0917 0.047,0.1419 0.047,0.1419 -2.29751,-0.0637 -2.29752,-0.0637 -5.45692,-0.11902 -5.45693,-0.11902 -3.82837,0.11892 -3.82838,0.11891 -2.50954,0.14559 -2.50955,0.14558 -0.28197,0.002 -0.28197,0.002 0.0524,-0.0848 z"
           id="path1320" />
        <path
           style="fill:#673216;stroke-width:0.100381"
           d="m 18.395827,170.53593 v -0.0605 l 0.733291,-0.71771 0.733287,-0.71771 0.529753,-0.75286 0.529753,-0.75286 0.534997,-1.1042 0.534992,-1.1042 0.517055,-1.35515 0.517055,-1.35516 0.246804,-0.90343 0.246808,-0.90343 0.389521,-1.60611 0.389521,-1.6061 0.318286,-1.80687 0.318282,-1.80687 0.192767,-1.55592 0.192767,-1.55591 0.17377,-1.80687 0.173767,-1.80687 0.0011,-5.37042 0.0011,-5.37041 -0.176441,-1.85706 -0.176442,-1.85706 -0.155043,-1.35516 -0.15504,-1.35515 -0.248314,-1.55591 -0.248314,-1.55592 -0.449113,-2.02139 -0.449113,-2.0214 -0.559501,-1.73499 -0.559494,-1.735 -0.600852,-1.36307 -0.600852,-1.36307 -0.15106,-0.23457 -0.151063,-0.23457 0.05069,-0.0507 0.05069,-0.0507 0.241693,0.38564 0.241694,0.38564 0.356703,0.60229 0.356704,0.60229 0.650587,1.30496 0.650586,1.30496 0.664348,1.67723 0.664343,1.67722 0.09154,0.3806 0.09153,0.3806 0.348558,1.25477 0.348557,1.25477 0.20995,1.20458 0.209946,1.20458 0.153693,1.50572 0.153693,1.50573 0.149155,2.20839 0.149152,2.2084 0.152756,2.5289 0.152748,2.5289 v 1.41108 1.41107 h 0.256934 0.25693 l 1.111711,-0.25095 1.111711,-0.25095 h 0.239949 0.239948 l 0.102023,0.26834 0.102019,0.26833 -0.140869,0.14087 -0.140873,0.14088 -1.494456,0.30043 -1.494453,0.30044 -0.05969,0.0683 -0.05968,0.0683 -0.115723,1.50573 -0.115727,1.50572 -0.259908,1.85706 -0.259912,1.85706 -0.01639,1.6563 -0.01639,1.65629 1.154389,-0.0273 1.154389,-0.0273 2.710302,-0.0975 2.710304,-0.0975 5.370417,0.002 5.370417,0.002 2.609922,0.14503 2.609922,0.14503 4.222718,0.1192 4.222718,0.1192 3.757621,-0.11663 3.75762,-0.11663 2.208396,-0.14648 2.208396,-0.14648 1.505724,-0.10933 1.505724,-0.10932 2.760495,-0.2443 2.760494,-0.24429 2.308778,-0.25474 2.308777,-0.25474 1.154388,-0.15251 1.154389,-0.1525 1.675738,-0.29648 1.675738,-0.29648 h 0.2681 0.268099 l 1.6699,-0.36184 1.669901,-0.36183 1.656297,-0.45161 1.656297,-0.45161 1.054007,-0.27669 1.054007,-0.27668 1.606105,-0.40196 1.60611,-0.40196 0.90343,-0.16434 0.90344,-0.16434 1.65629,-0.24068 1.6563,-0.24067 1.50572,-0.16504 1.50573,-0.16505 2.15724,-0.24258 2.15723,-0.24257 0.10135,0.10308 0.10135,0.10309 -0.19485,0.14382 -0.19486,0.14381 h -0.2248 -0.2248 l -1.83893,0.2924 -1.83893,0.29241 -1.85706,0.26225 -1.85706,0.26224 -1.15439,0.20225 -1.15439,0.20224 -1.70649,0.40465 -1.70649,0.40465 -1.857054,0.55708 -1.85706,0.55709 -1.054196,0.33919 -1.054195,0.3392 h -0.166253 -0.166253 l -1.389474,0.39674 -1.389473,0.39675 -2.509541,0.50019 -2.50954,0.50019 -1.104198,0.15435 -1.104198,0.15434 -1.706487,0.20241 -1.706488,0.2024 -2.057823,0.19849 -2.057824,0.19849 -2.810685,0.20013 -2.810685,0.20013 -2.509541,0.15752 -2.50954,0.15753 -2.208396,0.0961 -2.208395,0.0961 -3.262403,-3.8e-4 -3.262402,-3.8e-4 -2.308778,-0.0967 -2.308777,-0.0967 -2.258586,-0.15062 -2.258587,-0.15062 -1.656297,-0.10245 -1.656296,-0.10246 -3.162022,-0.0962 -3.162021,-0.0962 -4.617554,-0.0793 -4.617553,-0.0794 h -0.35126 -0.351335 l 0.02421,0.70946 0.0242,0.70946 0.201417,0.58543 0.201417,0.58543 0.346832,0.62019 0.346828,0.62019 0.73433,0.69484 0.734323,0.69484 1.052192,0.52764 1.052191,0.52763 0.953625,0.22177 0.953626,0.22178 2.45935,-0.006 2.459349,-0.006 3.412975,-0.11439 3.412976,-0.1144 3.011448,-0.15582 3.011449,-0.15583 12.397129,-0.10056 12.397131,-0.10056 0.65248,-0.048 0.652481,-0.048 2.108014,-0.15279 2.108014,-0.15279 1.806869,-0.19387 1.806869,-0.19387 0.803053,-0.1081 0.803053,-0.1081 2.911067,-0.48706 2.911067,-0.48707 1.957442,-0.30565 1.957441,-0.30565 2.208396,-0.29795 2.208396,-0.29794 1.70649,-0.15897 1.70649,-0.15898 1.40534,-0.11846 1.40534,-0.11846 3.46317,-0.001 3.46316,-0.001 1.50573,0.12094 1.50572,0.12093 1.70649,0.15133 1.70649,0.15131 1.00381,0.10443 1.00382,0.10443 1.85706,0.25254 1.85706,0.25255 1.35515,0.14074 1.35515,0.14074 0.96648,0.002 0.96648,0.002 0.13771,0.19297 0.13773,0.19298 2.25859,0.3092 2.25858,0.3092 1.25477,0.1553 1.25477,0.1553 1.20458,0.089 1.20458,0.0889 2.45935,0.20516 2.45935,0.20517 4.86851,0.30815 4.86851,0.30815 1.61069,0.0929 1.61069,0.0929 2.20381,0.20381 2.20381,0.20381 3.51335,0.35672 3.51336,0.35672 3.21222,0.34248 3.21221,0.34248 2.30877,0.20026 2.30878,0.20026 2.77613,0.15519 2.77614,0.15519 3.73755,0.10752 3.73755,0.10753 0.18981,-0.18981 0.18982,-0.18982 0.40947,-0.94781 0.40946,-0.94781 0.29019,-0.7848 0.29017,-0.78481 v -0.29053 -0.29053 l 0.19651,-0.53077 0.19651,-0.53077 0.25998,-1.00382 0.25999,-1.00381 0.34866,-1.70649 0.34864,-1.70649 0.10297,-1.40166 0.10298,-1.40166 0.0446,-0.0446 0.0446,-0.0446 -0.11073,-0.13342 -0.11074,-0.13344 -4.63141,0.0502 -4.63143,0.0502 -2.25859,0.0956 -2.25858,0.0956 -1.80687,0.0573 -1.80687,0.0573 -6.17347,0.49458 -6.17347,0.49457 -4.56737,0.35351 -4.56736,0.3535 -2.10802,0.15453 -2.10801,0.15452 -2.40916,0.35413 -2.40916,0.35412 -2.96126,0.53757 -2.96125,0.53756 -0.87898,0.12019 -0.87898,0.12019 -0.15313,-0.0588 -0.15312,-0.0588 -1.32686,0.34117 -1.32687,0.34117 -0.27605,0.10614 -0.27605,0.10613 v 0.0895 0.0895 l 0.5199,0.21606 0.51991,0.21606 0.58213,0.15085 0.58214,0.15085 0.52917,0.10213 0.52916,0.10213 4.16583,0.59236 4.16584,0.59235 1.00382,0.10655 1.00381,0.10654 3.51336,0.34629 3.51336,0.34629 3.16202,0.25204 3.16202,0.25205 4.06545,0.25475 4.06546,0.25475 1.85706,0.0978 1.85706,0.0978 2.76049,0.11421 2.7605,0.11421 6.0216,0.064 6.02161,0.064 0.0314,0.16348 0.0314,0.16349 -0.15267,0.15267 -0.15267,0.15267 -1.18241,0.0814 -1.18239,0.0814 -5.92252,0.002 -5.92252,0.002 -2.25858,-0.12372 -2.25859,-0.12372 -3.21221,-0.20115 -3.21221,-0.20115 -2.00763,-0.15441 -2.00763,-0.15441 -5.11947,-0.43783 -5.11946,-0.43784 -0.90343,-0.0639 -0.90344,-0.0639 -1.85706,-0.19777 -1.85706,-0.19776 -2.66011,-0.35394 -2.66011,-0.35395 -1.85707,-0.25655 -1.85706,-0.25656 L 139,158.6526 l -1.10881,-0.27922 -0.50787,-0.25735 -0.50786,-0.25735 -0.12253,-0.29584 -0.12255,-0.29585 0.204,-0.39987 0.20399,-0.39987 0.33065,-0.27968 0.33064,-0.27969 0.7337,-0.33541 0.73372,-0.3354 0.75455,-0.19764 0.75454,-0.19763 1.72396,-0.21211 1.72395,-0.21211 1.00382,-0.30228 1.00381,-0.30228 0.95363,-0.33045 0.95362,-0.33046 0.89617,-0.26461 0.89617,-0.26461 1.4628,-0.34679 1.4628,-0.34679 1.70649,-0.30043 1.70649,-0.30043 1.90724,-0.24459 1.90725,-0.24459 1.30497,-0.11297 1.30496,-0.11297 4.76813,-0.40046 4.76812,-0.40046 1.20458,-0.0962 1.20458,-0.0962 4.66774,-0.44734 4.66775,-0.44733 1.40534,-0.10491 1.40535,-0.10491 2.10801,-0.15264 2.10801,-0.15264 0.85325,-0.097 0.85324,-0.097 2.43689,-0.12158 2.43688,-0.12158 0.0964,-0.11615 0.0964,-0.11616 0.0766,-0.69401 0.0767,-0.69401 0.27239,-0.0314 0.27239,-0.0314 -0.0487,1.53713 -0.0487,1.53714 -0.14379,1.25477 -0.14379,1.25477 -0.24554,1.55591 -0.24554,1.55591 -0.21076,1.03976 -0.21078,1.03976 v 0.43911 0.43912 l -0.44299,1.73334 -0.44299,1.73334 -0.31877,0.85324 -0.31879,0.85325 -0.1444,0.63726 -0.1444,0.63726 -0.35516,0.81827 -0.35515,0.81827 -0.2059,0.40153 -0.2059,0.40153 -0.2604,0.5019 -0.2604,0.50191 -0.42333,0.56014 -0.42332,0.56014 -0.64364,0.6662 -0.64364,0.66621 -0.49292,0.22919 -0.4929,0.22919 -86.05215,0.0253 -86.05214,0.0253 v -0.0605 z m 170.247233,-10.69261 -1.05401,-0.0842 -1.64706,-0.20959 -1.64707,-0.20959 -0.77118,-0.24362 -0.77117,-0.24361 -0.4154,-0.30091 -0.4154,-0.30092 -0.0634,-0.2526 -0.0634,-0.25261 0.16709,-0.25502 0.1671,-0.25502 0.31752,-0.19309 0.31752,-0.19309 0.40478,-0.0502 0.4048,-0.0502 2.2084,-0.317 2.20839,-0.317 3.11184,-0.0775 3.11182,-0.0775 0.30115,-0.069 0.30114,-0.069 0.62501,-0.1993 0.62501,-0.1993 0.10763,0.0665 0.10763,0.0665 -0.11439,0.13784 -0.1144,0.13785 -0.54288,0.20311 -0.54287,0.20311 -1.15961,0.15202 -1.15961,0.15201 h -0.41073 -0.41073 l -1.9682,0.29241 -1.96819,0.29242 -2.00763,0.26862 -2.00763,0.26863 -0.0435,0.0429 -0.0435,0.0429 0.0937,0.0923 0.0937,0.0923 0.80305,0.20088 0.80305,0.20088 2.91107,0.41739 2.91107,0.41738 0.14096,0.13502 0.14097,0.13501 -0.16837,0.25698 -0.16838,0.25698 -0.82584,-0.014 -0.82583,-0.014 z m -65.69553,-6.30538 -0.0578,-0.0935 0.22479,-0.15743 0.22477,-0.15745 h 0.25926 0.25925 l 1.3998,-0.30392 1.3998,-0.30392 1.30497,-0.30308 1.30496,-0.30308 2.25858,-0.54227 2.25859,-0.54226 1.30496,-0.30155 1.30496,-0.30154 0.90344,-0.19908 0.90343,-0.19908 2.7605,-0.45451 2.76049,-0.45451 1.45553,-0.20297 1.45554,-0.20297 1.90725,-0.25231 1.90725,-0.2523 2.05782,-0.24772 2.05782,-0.24772 1.30497,-0.10414 1.30496,-0.10414 1.75668,-0.14826 1.75668,-0.14826 1.6061,-0.0987 1.6061,-0.0988 2.91107,-0.11925 2.91107,-0.11924 10.18874,-0.006 10.18873,-0.006 2.44003,0.0607 2.44005,0.0607 0.053,0.053 0.053,0.053 -0.18794,0.10059 -0.18795,0.10058 -0.84955,0.17085 -0.84958,0.17085 -5.16965,0.0815 -5.16965,0.0815 -6.67538,0.10542 -6.67538,0.10543 -2.55973,0.10375 -2.55973,0.10376 -1.55592,0.10041 -1.55591,0.10043 -2.35897,0.20247 -2.35897,0.20247 -1.50572,0.1515 -1.50573,0.1515 -2.76049,0.34686 -2.76049,0.34686 -0.95363,0.11232 -0.95362,0.11232 -3.51336,0.4974 -3.51336,0.4974 -0.65248,0.0899 -0.65248,0.0899 -1.00381,0.19822 -1.00382,0.19823 -2.96126,0.61203 -2.96126,0.61204 -1.45553,0.28866 -1.45553,0.28867 -1.66229,0.25922 -1.6623,0.25923 h -0.21394 -0.21394 l -0.0578,-0.0935 z m -90.699038,-2.42678 -1.054007,-0.0832 -0.785769,-0.10251 -0.785769,-0.1025 -0.08819,-0.0545 -0.08819,-0.0545 0.06242,-0.16265 0.06242,-0.16266 2.216879,0.0669 2.216881,0.0669 0.444017,0.22642 0.444017,0.22641 0.04116,0.12348 0.04116,0.12348 -0.836514,-0.014 -0.836513,-0.014 z m -3.563547,-10.44114 -0.602289,-0.28831 -0.276052,-3.1e-4 -0.276048,-3.2e-4 v -0.0968 -0.0969 l 0.215235,-0.11519 0.215231,-0.11519 0.361962,0.0513 0.361961,0.0513 0.277281,0.10853 0.277285,0.10853 0.116501,0.25569 0.116501,0.25569 -0.09264,0.0851 -0.09264,0.0851 z m -0.264074,-2.47958 -0.336064,-0.16833 -0.09505,-0.27409 -0.09505,-0.27409 0.06928,-0.0693 0.06927,-0.0693 0.225463,0.19936 0.225463,0.19935 0.276048,0.17142 0.276052,0.17142 v 0.0873 0.0873 l -0.139675,0.0536 -0.13967,0.0536 z m -0.53898,-3.93264 -0.06204,-0.10038 0.06204,-0.10038 0.06204,-0.10039 h 0.23274 0.232736 l 0.111804,0.13472 0.1118,0.13471 -0.06605,0.066 -0.06605,0.0661 h -0.27849 -0.278491 z m 66.502823,-2.76732 -0.65248,-0.0332 -7.528622,-0.1125 -7.528621,-0.1125 -0.08403,-0.082 -0.08403,-0.082 0.08403,-0.0513 0.08403,-0.0513 1.25477,-0.10934 1.25477,-0.10935 7.829767,-0.14958 7.829766,-0.14959 6.775756,-0.1055 6.77576,-0.1055 2.10801,-0.0983 2.10802,-0.0983 1.60611,-0.10262 1.6061,-0.10262 1.85706,-0.14728 1.85706,-0.14727 2.15821,-0.20777 2.1582,-0.20776 3.96508,-0.48965 3.96507,-0.48965 1.20458,-0.10608 1.20458,-0.10609 1.75668,-0.14804 1.75668,-0.14804 1.40534,-0.10476 1.40534,-0.10475 2.81069,-0.15888 2.81068,-0.15888 7.67919,-0.033 7.6792,-0.033 3.31259,-0.11343 3.3126,-0.11342 4.96889,-0.24144 4.96889,-0.24144 1.98253,-0.0686 1.98254,-0.0685 v 0.15957 0.15956 l -0.0883,0.0546 -0.0883,0.0545 -1.69351,0.10396 -1.69352,0.10397 -3.56354,0.20012 -3.56355,0.20012 -3.01145,0.14597 -3.01145,0.14597 -3.31259,0.10293 -3.31259,0.10294 -5.521,0.10442 -5.52098,0.10442 -2.30878,0.14673 -2.30878,0.14673 -1.85706,0.15615 -1.85706,0.15614 -2.40916,0.24926 -2.40916,0.24926 -2.00763,0.14979 -2.00763,0.14979 -1.55592,0.097 -1.55591,0.097 -1.30496,0.10418 -1.30496,0.10418 -1.75668,0.20066 -1.75668,0.20065 -0.90344,0.0953 -0.90343,0.0953 -1.70649,0.25316 -1.70648,0.25315 -1.80335,0.20572 -1.80336,0.20571 -3.01496,0.0953 -3.01497,0.0953 -6.67538,0.0384 -6.675375,0.0384 z m 102.608886,-3.08227 -0.10609,-0.12783 -0.35714,-1.65394 -0.35715,-1.65394 -0.25882,-0.90343 -0.25882,-0.90344 -0.15232,-0.60229 -0.15234,-0.60229 -0.2421,-0.80903 -0.24211,-0.80903 v -0.16969 -0.16969 h 0.2305 0.23049 l 0.16051,0.47681 0.16051,0.47682 0.31764,0.95362 0.31765,0.95363 0.39555,1.53359 0.39555,1.53359 0.004,0.52423 0.004,0.52423 0.13648,0.70268 0.13648,0.70267 -0.0457,0.0753 -0.0457,0.0753 h -0.0822 -0.0822 l -0.1061,-0.12784 z m -5.74062,-1.55479 v -0.20004 l 0.13695,-0.11366 0.13695,-0.11366 1.49425,-0.19963 1.49425,-0.19964 0.41772,-0.0552 0.41773,-0.0551 0.0647,0.10477 0.0648,0.10477 -0.23152,0.0935 -0.23152,0.0935 -1.30497,0.30214 -1.30496,0.30214 -0.57719,0.068 -0.57719,0.068 z m -64.84653,-2.73416 v -0.10038 h 0.30115 0.30114 v 0.10038 0.10038 h -0.30114 -0.30115 z m 0.90344,-0.0858 v -0.0858 l 1.33005,-0.11719 1.33006,-0.11719 1.45553,-0.0967 1.45553,-0.0967 5.94761,-0.068 5.94762,-0.068 v 0.11683 0.11683 h -0.61131 -0.6113 l -2.6762,0.10139 -2.67619,0.1014 -4.85264,0.14956 -4.85263,0.14956 h -0.59307 -0.59306 z m 18.97212,-0.61684 v -0.10039 h 0.25096 0.25095 v 0.10039 0.10038 h -0.25095 -0.25096 z m 2.40916,-0.10039 v -0.10038 h 0.25096 0.25095 v 0.10038 0.10039 h -0.25095 -0.25096 z m 9.8374,-0.80305 v -0.10038 h 0.20076 0.20077 v 0.10038 0.10038 h -0.20077 -0.20076 z m 0.80305,-0.10038 v -0.10038 h 0.35134 0.35133 v 0.10038 0.10038 h -0.35133 -0.35134 z m 1.00382,-0.10038 v -0.10038 h 0.35134 0.35133 v 0.10038 0.10038 h -0.35133 -0.35134 z m 1.20458,-0.10038 v -0.10039 h 0.30114 0.30115 v 0.10039 0.10038 h -0.30115 -0.30114 z m -91.146513,-0.0623 -1.154389,-0.0305 -3.262402,-0.10787 -3.262403,-0.10786 -2.660113,-0.14915 -2.660113,-0.14915 -3.312593,-0.10103 -3.312594,-0.10104 -3.895727,-0.0866 -3.895727,-0.0866 -0.06098,-0.061 -0.06098,-0.061 0.04183,-0.0378 0.04183,-0.0378 1.957441,-0.16361 1.957442,-0.16361 2.559732,-0.10801 2.559731,-0.10801 2.559731,0.0634 2.559731,0.0634 3.814502,0.14315 3.814502,0.14315 4.617554,0.11136 4.617555,0.11136 14.003236,-0.0336 14.003237,-0.0336 2.63501,0.14238 2.63502,0.14237 v 0.0816 0.0816 l -0.22586,0.0435 -0.22586,0.0435 -3.06164,0.16331 -3.06163,0.1633 -2.810688,0.10506 -2.810685,0.10507 -11.74465,0.0254 -11.744649,0.0254 z m 92.049943,-0.0241 v -0.0864 l 0.47682,-0.057 0.47681,-0.057 3.41297,-0.40012 3.41298,-0.40011 2.20839,-0.21159 2.2084,-0.21159 2.10801,-0.14478 2.10802,-0.14479 3.01145,-0.0997 3.01144,-0.0997 2.28369,-0.0559 2.28368,-0.0559 v 0.10199 0.10199 h -0.29336 -0.29335 l -2.49224,0.14948 -2.49223,0.14949 -3.36278,0.25191 -3.36279,0.2519 -4.16584,0.30859 -4.16583,0.30859 -2.7605,0.24338 -2.7605,0.24338 -0.42662,3e-4 -0.42662,3e-4 v -0.0864 z M 41.383219,121.20819 v -0.10038 h 0.501908 0.501908 v 0.10038 0.10038 h -0.501908 -0.501908 z m 149.518421,-7.02827 -1.00381,-0.49806 -8.43206,-0.19943 -8.43206,-0.19943 -5.47079,-0.1064 -5.4708,-0.10641 -4.56737,-0.0905 -4.56736,-0.0905 -0.20257,0.1313 -0.20256,0.1313 -4.11385,0.0544 -4.11384,0.0544 -1.85706,0.16083 -1.85706,0.16083 -2.45935,0.24202 -2.45935,0.24201 -2.00763,0.10715 -2.00763,0.10714 -4.01527,0.10251 -4.01527,0.10251 -0.82814,-0.001 -0.82815,-10e-4 v -0.10038 -0.10038 l 0.527,-1.9e-4 0.527,-1.9e-4 2.05783,-0.19961 2.05782,-0.19961 3.56355,-0.39589 3.56355,-0.3959 1.45553,-0.11408 1.45554,-0.11409 0.18577,-0.053 0.18577,-0.053 -0.0854,-0.0813 -0.0854,-0.0813 -6.42442,-0.11061 -6.42443,-0.1106 -7.0769,-0.10322 -7.07691,-0.10321 -9.58644,-0.003 -9.586447,-0.003 -5.420607,0.10628 -5.420608,0.10628 -2.358968,0.007 -2.358968,0.007 -0.750739,-0.10966 -0.750738,-0.10966 -0.08649,-0.0865 -0.08649,-0.0865 1.539903,-0.0614 1.539901,-0.0614 6.876141,-0.12531 6.876141,-0.12531 10.740829,0.013 10.74083,0.013 7.07691,0.11391 7.0769,0.11391 7.42824,0.0982 7.42824,0.0982 7.32786,0.15146 7.32786,0.15146 6.92633,0.15096 6.92633,0.15095 8.7332,0.19943 8.7332,0.19942 1.50573,0.0259 1.50572,0.0259 0.55515,0.27265 0.55515,0.27264 0.42357,0.36256 0.42357,0.36256 v 0.14275 0.14275 l -0.17566,-0.003 -0.17567,-0.003 -1.00382,-0.49806 z m -70.11656,0.3027 v -0.10038 h 0.35134 0.35133 v 0.10038 0.10038 h -0.35133 -0.35134 z m -29.644458,-0.26945 -0.684361,-0.0412 0.04002,-0.12073 0.04002,-0.12074 2.501405,-0.26686 2.501405,-0.26686 1.90725,-0.15593 1.907251,-0.15593 1.768648,-0.0657 1.76865,-0.0657 0.0622,0.10066 0.0622,0.10066 -0.12437,0.10133 -0.12437,0.10132 -1.1042,0.11735 -1.1042,0.11736 -2.258585,0.30326 -2.258586,0.30327 -2.108014,0.0278 -2.108014,0.0278 z"
           id="path1318" />
        <path
           style="fill:#59260f;stroke-width:0.100381"
           d="m 18.797356,170.1877 0.351335,-0.30228 0.295309,-0.27212 0.29531,-0.27212 0.58681,-0.8009 0.586811,-0.8009 0.590972,-1.20674 0.590973,-1.20673 0.515757,-1.35515 0.515757,-1.35516 0.246808,-0.90343 0.246804,-0.90343 0.389521,-1.60611 0.389521,-1.6061 0.318286,-1.80687 0.318286,-1.80687 0.192767,-1.55592 0.192763,-1.55591 0.173771,-1.80687 0.17377,-1.80687 0.0011,-5.37042 0.0011,-5.37041 -0.176446,-1.85706 -0.176441,-1.85706 -0.15504,-1.35516 -0.155044,-1.35515 -0.248314,-1.55591 -0.248314,-1.55592 -0.449113,-2.02139 -0.449112,-2.0214 -0.561509,-1.74291 -0.561501,-1.74292 -0.291056,-0.64323 -0.291057,-0.64322 0.04502,-0.045 0.04501,-0.045 0.645241,1.29053 0.645234,1.29053 0.664347,1.67723 0.664344,1.67722 0.09154,0.3806 0.09154,0.3806 0.348554,1.25477 0.348562,1.25477 0.209946,1.20458 0.209945,1.20458 0.153693,1.50572 0.153693,1.50572 0.149156,2.2084 0.149155,2.2084 0.152752,2.5289 0.152752,2.52889 v 1.42069 1.42069 l 0.173433,0.29359 0.173429,0.2936 -0.143009,0.2238 -0.143009,0.2238 -0.120007,1.50572 -0.120002,1.50573 -0.275786,2.00763 -0.275787,2.00763 -0.0093,1.55592 -0.0093,1.55591 0.06585,0.85325 0.06585,0.85324 0.269697,0.75286 0.269693,0.75287 0.334365,0.5521 0.334361,0.55209 0.683427,0.67031 0.683419,0.67031 1.054009,0.55034 1.054007,0.55034 1.304961,0.28289 1.304962,0.2829 2.710303,-0.007 2.710304,-0.007 1.85706,-0.1189 1.85706,-0.1189 3.11183,-0.10225 3.11183,-0.10224 3.312594,-0.0926 3.312593,-0.0926 8.231293,-0.004 8.231293,-0.004 2.459349,-0.1006 2.45935,-0.1006 2.009876,-0.1517 2.009875,-0.1517 1.202337,-0.14326 1.202336,-0.14325 1.656297,-0.21056 1.656296,-0.21056 2.409159,-0.40271 2.409159,-0.40271 0.652481,-0.0858 0.65248,-0.0858 2.308777,-0.35607 2.308777,-0.35606 1.555916,-0.20027 1.555918,-0.20027 1.6563,-0.15564 1.6563,-0.15564 1.40534,-0.11826 1.40534,-0.11827 3.56355,-0.001 3.56355,-0.001 1.50572,0.12156 1.50572,0.12157 1.75668,0.15279 1.75668,0.15279 2.50954,0.29145 2.50954,0.29145 1.35515,0.1523 1.35515,0.15229 1.05401,0.0675 1.05401,0.0676 0.35134,0.18608 0.35133,0.18609 2.25858,0.30278 2.25858,0.3028 1.25478,0.1553 1.25477,0.15529 1.20458,0.089 1.20457,0.089 2.45935,0.20517 2.45935,0.20516 4.86851,0.30815 4.86851,0.30815 1.61069,0.0929 1.6107,0.0929 2.2038,0.20381 2.20381,0.20381 3.51336,0.35672 3.51336,0.35672 3.21221,0.34248 3.21221,0.34248 2.30879,0.20026 2.30877,0.20026 2.76328,0.15442 2.76327,0.15441 3.63895,0.10588 3.63895,0.10587 0.31367,-0.15647 0.31368,-0.15649 h 0.13514 0.13516 v 0.19574 0.19574 l -0.35108,0.58221 -0.35109,0.58223 v 0.0914 0.0915 l -0.53678,0.71161 -0.53678,0.7116 -0.55111,0.55848 -0.55112,0.55848 -0.49311,0.24457 -0.49312,0.24458 -86.02704,0.0223 -86.027055,0.0223 0.351335,-0.30227 z m 122.887784,-14.35974 0.0374,-0.11226 0.85472,-0.4723 0.85472,-0.47229 1.19942,-0.36116 1.19943,-0.36116 0.90315,-0.15448 0.90316,-0.15447 2.55973,-0.35513 2.55973,-0.35514 2.30878,-0.29481 2.30878,-0.29482 2.86087,-0.3044 2.86088,-0.30441 3.86469,-0.30576 3.86469,-0.30575 2.25859,-0.14486 2.25858,-0.14486 2.10802,-0.10246 2.10801,-0.10247 4.01527,-0.10258 4.01526,-0.10258 4.36462,-0.0252 4.36464,-0.0252 0.0365,0.18634 0.0365,0.18632 -0.0883,0.0883 -0.0883,0.0883 -1.30133,0.15059 -1.30133,0.15059 -1.60611,0.15334 -1.60611,0.15334 -2.55972,0.0981 -2.55974,0.0981 -2.86087,0.10081 -2.86088,0.10081 -2.00763,0.14647 -2.00763,0.14646 -1.20458,0.0591 -1.20458,0.0591 -2.35897,0.1465 -2.35897,0.14649 -2.91106,0.25271 -2.91107,0.25271 -2.45935,0.24297 -2.45935,0.24296 -1.55592,0.11513 -1.55591,0.11513 -1.75668,0.23792 -1.75668,0.23792 -1.60611,0.24985 -1.6061,0.24984 -2.05782,0.35915 -2.05783,0.35916 -0.78905,0.14811 -0.78904,0.14812 h -0.24823 -0.24823 z m 55.6444,-4.09993 -0.17823,-0.19693 0.11083,-0.63122 0.11082,-0.63121 0.10649,-1.15439 0.10649,-1.15439 0.20209,-0.20076 0.20209,-0.20077 0.14262,0.1919 0.14262,0.1919 -0.0425,0.20963 -0.0425,0.20963 -0.11895,1.50572 -0.11894,1.50572 -0.14013,0.27605 -0.14012,0.27605 h -0.0822 -0.0822 z m -52.65364,-38.87755 -4.66774,-0.0921 -0.0954,-0.0915 -0.0954,-0.0915 0.10779,-0.10779 0.10778,-0.10778 3.04923,-0.0551 3.04921,-0.0551 3.18347,0.12963 3.18348,0.12964 0.10742,0.0664 0.10742,0.0664 -0.0643,0.16765 -0.0643,0.16764 -1.62046,-0.0171 -1.62046,-0.0171 z"
           id="path1316" />
      </g>
    </g>
  </g>
</svg>
